<?xml version="1.0" encoding="UTF-8"?>
<!DOCTYPE svg PUBLIC "-//W3C//DTD SVG 1.1//EN" "http://www.w3.org/Graphics/SVG/1.1/DTD/svg11.dtd">
<svg xmlns="http://www.w3.org/2000/svg" version="1.1" width="325px" height="294px" style="shape-rendering:geometricPrecision; text-rendering:geometricPrecision; image-rendering:optimizeQuality; fill-rule:evenodd; clip-rule:evenodd" xmlns:xlink="http://www.w3.org/1999/xlink">
<g><path style="opacity:1" fill="#06000e" d="M -0.5,-0.5 C 107.833,-0.5 216.167,-0.5 324.5,-0.5C 324.5,0.5 324.5,1.5 324.5,2.5C 314.167,2.5 303.833,2.5 293.5,2.5C 293.5,15.1667 293.5,27.8333 293.5,40.5C 303.833,40.5 314.167,40.5 324.5,40.5C 324.5,41.1667 324.5,41.8333 324.5,42.5C 314.167,42.5 303.833,42.5 293.5,42.5C 293.5,55.1667 293.5,67.8333 293.5,80.5C 303.833,80.5 314.167,80.5 324.5,80.5C 324.5,81.5 324.5,82.5 324.5,83.5C 314.167,83.5 303.833,83.5 293.5,83.5C 293.5,96.1667 293.5,108.833 293.5,121.5C 303.833,121.5 314.167,121.5 324.5,121.5C 324.5,122.5 324.5,123.5 324.5,124.5C 314.167,124.5 303.833,124.5 293.5,124.5C 293.5,136.833 293.5,149.167 293.5,161.5C 303.833,161.5 314.167,161.5 324.5,161.5C 324.5,162.833 324.5,164.167 324.5,165.5C 314.167,165.5 303.833,165.5 293.5,165.5C 293.5,177.833 293.5,190.167 293.5,202.5C 303.833,202.5 314.167,202.5 324.5,202.5C 324.5,203.167 324.5,203.833 324.5,204.5C 314.251,204.181 304.084,204.514 294,205.5C 293.5,218.162 293.333,230.829 293.5,243.5C 303.833,243.5 314.167,243.5 324.5,243.5C 324.5,244.167 324.5,244.833 324.5,245.5C 314.251,245.181 304.084,245.514 294,246.5C 293.5,258.829 293.333,271.162 293.5,283.5C 303.833,283.5 314.167,283.5 324.5,283.5C 324.5,286.833 324.5,290.167 324.5,293.5C 216.167,293.5 107.833,293.5 -0.5,293.5C -0.5,195.5 -0.5,97.5 -0.5,-0.5 Z"/></g>
<g><path style="opacity:1" fill="#050012" d="M 9.5,2.5 C 22.1667,2.5 34.8333,2.5 47.5,2.5C 47.5,15.1667 47.5,27.8333 47.5,40.5C 34.8333,40.5 22.1667,40.5 9.5,40.5C 9.5,27.8333 9.5,15.1667 9.5,2.5 Z"/></g>
<g><path style="opacity:1" fill="#070013" d="M 128.5,20.5 C 128.5,20.8333 128.5,21.1667 128.5,21.5C 128.263,22.791 128.596,23.791 129.5,24.5C 130.11,25.391 130.443,26.391 130.5,27.5C 128.57,31.3727 127.903,35.706 128.5,40.5C 121.833,41.1667 121.833,41.8333 128.5,42.5C 128.395,46.5483 128.728,50.5483 129.5,54.5C 128.167,52.8333 126.833,51.1667 125.5,49.5C 120.358,39.8872 115.192,30.2205 110,20.5C 106.606,19.5442 103.106,19.2108 99.5,19.5C 94.9725,19.7704 90.6391,20.4371 86.5,21.5C 81.71,22.9524 77.71,25.619 74.5,29.5C 72.1,31.2964 70.4333,33.6298 69.5,36.5C 68.0762,38.5145 67.4095,40.8478 67.5,43.5C 67.1667,43.5 66.8333,43.5 66.5,43.5C 65.5048,55.6554 65.1714,67.9887 65.5,80.5C 60.1667,80.5 54.8333,80.5 49.5,80.5C 49.3335,68.1622 49.5001,55.8288 50,43.5C 55.4478,42.8543 60.9478,42.1876 66.5,41.5C 60.9478,40.8124 55.4478,40.1457 50,39.5C 49.5001,27.1712 49.3335,14.8378 49.5,2.5C 62.1667,2.5 74.8333,2.5 87.5,2.5C 87.5,8.16667 87.5,13.8333 87.5,19.5C 88.5,19.5 89.5,19.5 90.5,19.5C 90.5,13.8333 90.5,8.16667 90.5,2.5C 103.167,2.5 115.833,2.5 128.5,2.5C 128.5,8.5 128.5,14.5 128.5,20.5 Z"/></g>
<g><path style="opacity:1" fill="#050012" d="M 169.5,20.5 C 156.833,20.5 144.167,20.5 131.5,20.5C 131.5,14.5 131.5,8.5 131.5,2.5C 144.167,2.5 156.833,2.5 169.5,2.5C 169.5,8.5 169.5,14.5 169.5,20.5 Z"/></g>
<g><path style="opacity:1" fill="#070013" d="M 233.5,40.5 C 232.5,39.1667 231.5,37.8333 230.5,36.5C 230.573,34.9731 229.906,33.9731 228.5,33.5C 227.5,31.8333 226.167,30.5 224.5,29.5C 221.532,26.3853 217.866,24.3853 213.5,23.5C 211.393,22.5318 209.059,22.1984 206.5,22.5C 205.833,24.1667 205.167,25.8333 204.5,27.5C 204.068,26.2905 203.401,25.2905 202.5,24.5C 202.586,23.5041 202.252,22.6708 201.5,22C 177.169,21.5 152.836,21.3334 128.5,21.5C 128.5,21.1667 128.5,20.8333 128.5,20.5C 129.5,20.5 130.5,20.5 131.5,20.5C 144.167,20.5 156.833,20.5 169.5,20.5C 171.453,14.9262 172.12,8.92619 171.5,2.5C 184.167,2.5 196.833,2.5 209.5,2.5C 209.5,8.83333 209.5,15.1667 209.5,21.5C 210.5,21.5 211.5,21.5 212.5,21.5C 212.5,15.1667 212.5,8.83333 212.5,2.5C 225.167,2.5 237.833,2.5 250.5,2.5C 250.667,14.8378 250.5,27.1712 250,39.5C 244.593,40.4732 239.093,40.8066 233.5,40.5 Z"/></g>
<g><path style="opacity:1" fill="#050012" d="M 253.5,2.5 C 266.167,2.5 278.833,2.5 291.5,2.5C 291.667,14.8378 291.5,27.1712 291,39.5C 278.58,40.4888 266.08,40.8221 253.5,40.5C 253.5,27.8333 253.5,15.1667 253.5,2.5 Z"/></g>
<g><path style="opacity:1" fill="#050012" d="M 324.5,2.5 C 324.5,15.1667 324.5,27.8333 324.5,40.5C 314.167,40.5 303.833,40.5 293.5,40.5C 293.5,27.8333 293.5,15.1667 293.5,2.5C 303.833,2.5 314.167,2.5 324.5,2.5 Z"/></g>
<g><path style="opacity:1" fill="#614180" d="M 99.5,19.5 C 97.7809,20.0221 96.4475,21.0221 95.5,22.5C 95.1667,22.5 94.8333,22.5 94.5,22.5C 92.0521,21.5269 89.3854,21.1936 86.5,21.5C 90.6391,20.4371 94.9725,19.7704 99.5,19.5 Z"/></g>
<g><path style="opacity:1" fill="#ba84ea" d="M 99.5,19.5 C 103.106,19.2108 106.606,19.5442 110,20.5C 115.192,30.2205 120.358,39.8872 125.5,49.5C 124.153,50.1712 122.986,50.1712 122,49.5C 120.429,51.9229 118.263,53.2562 115.5,53.5C 115.833,55.5 116.167,57.5 116.5,59.5C 114.833,56.8333 113.167,54.1667 111.5,51.5C 111.573,49.9731 110.906,48.9731 109.5,48.5C 105.355,39.5417 100.688,30.8751 95.5,22.5C 96.4475,21.0221 97.7809,20.0221 99.5,19.5 Z"/></g>
<g><path style="opacity:1" fill="#662b9f" d="M 128.5,21.5 C 152.836,21.3334 177.169,21.5 201.5,22C 202.252,22.6708 202.586,23.5041 202.5,24.5C 201.711,24.2172 201.044,23.7172 200.5,23C 194.175,22.5005 187.842,22.3338 181.5,22.5C 176.833,22.5 172.167,22.5 167.5,22.5C 154.456,21.853 141.789,22.5197 129.5,24.5C 128.596,23.791 128.263,22.791 128.5,21.5 Z"/></g>
<g><path style="opacity:1" fill="#a556f0" d="M 167.5,22.5 C 161.347,23.3279 155.013,23.8279 148.5,24C 148.736,26.7844 148.736,29.6178 148.5,32.5C 143.5,32.5 138.5,32.5 133.5,32.5C 132.737,30.6316 131.737,28.9649 130.5,27.5C 130.443,26.391 130.11,25.391 129.5,24.5C 141.789,22.5197 154.456,21.853 167.5,22.5 Z"/></g>
<g><path style="opacity:1" fill="#a04cf1" d="M 167.5,22.5 C 172.167,22.5 176.833,22.5 181.5,22.5C 180.122,23.2344 178.622,23.9011 177,24.5C 176.934,27.1249 177.101,29.7916 177.5,32.5C 167.833,32.5 158.167,32.5 148.5,32.5C 148.736,29.6178 148.736,26.7844 148.5,24C 155.013,23.8279 161.347,23.3279 167.5,22.5 Z"/></g>
<g><path style="opacity:1" fill="#9940ed" d="M 181.5,22.5 C 187.842,22.3338 194.175,22.5005 200.5,23C 201.044,23.7172 201.711,24.2172 202.5,24.5C 203.401,25.2905 204.068,26.2905 204.5,27.5C 204.5,28.1667 204.5,28.8333 204.5,29.5C 204.414,30.4959 204.748,31.3292 205.5,32C 196.173,32.4998 186.839,32.6665 177.5,32.5C 177.101,29.7916 176.934,27.1249 177,24.5C 178.622,23.9011 180.122,23.2344 181.5,22.5 Z"/></g>
<g><path style="opacity:1" fill="#270945" d="M 206.5,22.5 C 206.664,25.1873 206.497,27.854 206,30.5C 205.617,29.944 205.117,29.6107 204.5,29.5C 204.5,28.8333 204.5,28.1667 204.5,27.5C 205.167,25.8333 205.833,24.1667 206.5,22.5 Z"/></g>
<g><path style="opacity:1" fill="#b081dc" d="M 86.5,21.5 C 89.3854,21.1936 92.0521,21.5269 94.5,22.5C 94.5,25.8333 94.5,29.1667 94.5,32.5C 92.4352,32.5172 90.4352,32.8505 88.5,33.5C 89.6354,31.7868 91.302,31.1201 93.5,31.5C 93.7135,29.8561 93.3802,28.3561 92.5,27C 87.8333,26.3333 83.1667,26.3333 78.5,27C 77.5291,28.4813 76.1958,29.3146 74.5,29.5C 77.71,25.619 81.71,22.9524 86.5,21.5 Z"/></g>
<g><path style="opacity:1" fill="#06000e" d="M 130.5,27.5 C 131.2,31.7978 131.533,36.1311 131.5,40.5C 143.838,40.6665 156.171,40.4999 168.5,40C 170.228,33.9518 171.228,34.1184 171.5,40.5C 184.167,40.5 196.833,40.5 209.5,40.5C 209.238,39.0222 209.571,37.6888 210.5,36.5C 212.111,37.3202 212.778,38.6536 212.5,40.5C 217.579,40.7825 217.746,41.7825 213,43.5C 212.5,55.8288 212.333,68.1622 212.5,80.5C 214.833,80.5 217.167,80.5 219.5,80.5C 219.5,81.5 219.5,82.5 219.5,83.5C 217.167,83.5 214.833,83.5 212.5,83.5C 212.5,96.1667 212.5,108.833 212.5,121.5C 216.012,120.945 219.012,121.612 221.5,123.5C 221.5,124.833 221.5,126.167 221.5,127.5C 220.791,144.026 220.125,160.693 219.5,177.5C 219.443,178.609 219.11,179.609 218.5,180.5C 216.637,182.705 214.303,184.039 211.5,184.5C 209.544,178.588 208.877,172.255 209.5,165.5C 202.5,165.5 195.5,165.5 188.5,165.5C 187.89,164.609 187.557,163.609 187.5,162.5C 194.648,161.508 201.981,161.175 209.5,161.5C 209.5,149.167 209.5,136.833 209.5,124.5C 196.833,124.5 184.167,124.5 171.5,124.5C 171.806,127.385 171.473,130.052 170.5,132.5C 170.167,131.833 169.833,131.167 169.5,130.5C 169.5,128.5 169.5,126.5 169.5,124.5C 156.833,124.5 144.167,124.5 131.5,124.5C 131.5,136.833 131.5,149.167 131.5,161.5C 144.537,161.223 157.537,161.557 170.5,162.5C 170.557,163.609 170.89,164.609 171.5,165.5C 171.827,175.015 171.494,184.348 170.5,193.5C 169.89,192.609 169.557,191.609 169.5,190.5C 169.5,182.167 169.5,173.833 169.5,165.5C 156.833,165.5 144.167,165.5 131.5,165.5C 131.5,172.167 131.5,178.833 131.5,185.5C 130.5,185.5 129.5,185.5 128.5,185.5C 128.5,178.833 128.5,172.167 128.5,165.5C 115.833,165.5 103.167,165.5 90.5,165.5C 90.5,171.833 90.5,178.167 90.5,184.5C 89.5,184.5 88.5,184.5 87.5,184.5C 87.5,178.167 87.5,171.833 87.5,165.5C 85.1667,165.5 82.8333,165.5 80.5,165.5C 80.5,164.167 80.5,162.833 80.5,161.5C 82.8333,161.5 85.1667,161.5 87.5,161.5C 87.5,149.167 87.5,136.833 87.5,124.5C 84.5,124.5 81.5,124.5 78.5,124.5C 78.5,123.5 78.5,122.5 78.5,121.5C 81.5,121.5 84.5,121.5 87.5,121.5C 87.5,108.833 87.5,96.1667 87.5,83.5C 85.1667,83.5 82.8333,83.5 80.5,83.5C 80.2358,69.1375 80.5692,54.8042 81.5,40.5C 83.8333,38.8333 85.8333,36.8333 87.5,34.5C 88.5,34.5 89.5,34.5 90.5,34.5C 90.5,36.5 90.5,38.5 90.5,40.5C 95.3614,40.0634 100.028,40.5634 104.5,42C 99.9145,42.1971 95.4145,42.6971 91,43.5C 90.5001,55.8288 90.3335,68.1622 90.5,80.5C 102.171,80.3335 113.838,80.5001 125.5,81C 126.308,81.3076 126.975,81.8076 127.5,82.5C 115.185,83.499 102.851,83.8324 90.5,83.5C 90.3335,95.8378 90.5001,108.171 91,120.5C 103.42,121.489 115.92,121.822 128.5,121.5C 127.855,109.452 128.522,97.7854 130.5,86.5C 131.413,98.1359 131.746,109.803 131.5,121.5C 144.167,121.5 156.833,121.5 169.5,121.5C 169.5,108.833 169.5,96.1667 169.5,83.5C 161.826,83.6664 154.159,83.4997 146.5,83C 146.043,82.586 145.709,82.086 145.5,81.5C 153.472,80.5023 161.472,80.169 169.5,80.5C 169.667,68.1622 169.5,55.8288 169,43.5C 156.58,42.5112 144.08,42.1779 131.5,42.5C 132.097,47.294 131.43,51.6273 129.5,55.5C 129.5,55.1667 129.5,54.8333 129.5,54.5C 128.728,50.5483 128.395,46.5483 128.5,42.5C 121.833,41.8333 121.833,41.1667 128.5,40.5C 127.903,35.706 128.57,31.3727 130.5,27.5 Z"/></g>
<g><path style="opacity:1" fill="#9234e8" d="M 213.5,23.5 C 217.866,24.3853 221.532,26.3853 224.5,29.5C 224.414,30.4959 224.748,31.3292 225.5,32C 219.423,31.8606 213.423,32.0273 207.5,32.5C 207.5,29.5 207.5,26.5 207.5,23.5C 209.5,23.5 211.5,23.5 213.5,23.5 Z"/></g>
<g><path style="opacity:1" fill="#c89df0" d="M 88.5,33.5 C 87.8333,33.5 87.5,33.8333 87.5,34.5C 84.5,35.5 82.5,37.5 81.5,40.5C 80.8333,41.5 80.1667,42.5 79.5,43.5C 78.8333,43.5 78.5,43.8333 78.5,44.5C 75.1667,44.5 71.8333,44.5 68.5,44.5C 68.8333,41.8333 69.1667,39.1667 69.5,36.5C 70.4333,33.6298 72.1,31.2964 74.5,29.5C 76.1958,29.3146 77.5291,28.4813 78.5,27C 83.1667,26.3333 87.8333,26.3333 92.5,27C 93.3802,28.3561 93.7135,29.8561 93.5,31.5C 91.302,31.1201 89.6354,31.7868 88.5,33.5 Z"/></g>
<g><path style="opacity:1" fill="#8539ce" d="M 206.5,22.5 C 209.059,22.1984 211.393,22.5318 213.5,23.5C 211.5,23.5 209.5,23.5 207.5,23.5C 207.5,26.5 207.5,29.5 207.5,32.5C 208.5,33.1667 209.5,33.8333 210.5,34.5C 184.687,33.8696 159.02,33.203 133.5,32.5C 138.5,32.5 143.5,32.5 148.5,32.5C 158.167,32.5 167.833,32.5 177.5,32.5C 186.839,32.6665 196.173,32.4998 205.5,32C 204.748,31.3292 204.414,30.4959 204.5,29.5C 205.117,29.6107 205.617,29.944 206,30.5C 206.497,27.854 206.664,25.1873 206.5,22.5 Z"/></g>
<g><path style="opacity:1" fill="#0e0318" d="M 130.5,27.5 C 131.737,28.9649 132.737,30.6316 133.5,32.5C 159.02,33.203 184.687,33.8696 210.5,34.5C 210.833,34.5 211.167,34.5 211.5,34.5C 211.973,35.9063 212.973,36.573 214.5,36.5C 215.5,38.1667 216.833,39.5 218.5,40.5C 219.167,40.5 219.5,40.8333 219.5,41.5C 219.987,42.4734 220.487,43.4734 221,44.5C 221.168,61.3384 221.668,78.005 222.5,94.5C 222.12,96.698 222.787,98.3646 224.5,99.5C 225.674,100.514 226.34,101.847 226.5,103.5C 228.167,106.167 229.833,108.833 231.5,111.5C 228.757,113.239 226.757,115.573 225.5,118.5C 224.094,118.973 223.427,119.973 223.5,121.5C 222.833,122.167 222.167,122.833 221.5,123.5C 219.012,121.612 216.012,120.945 212.5,121.5C 212.5,108.833 212.5,96.1667 212.5,83.5C 214.833,83.5 217.167,83.5 219.5,83.5C 219.5,82.5 219.5,81.5 219.5,80.5C 217.167,80.5 214.833,80.5 212.5,80.5C 212.333,68.1622 212.5,55.8288 213,43.5C 217.746,41.7825 217.579,40.7825 212.5,40.5C 212.778,38.6536 212.111,37.3202 210.5,36.5C 209.571,37.6888 209.238,39.0222 209.5,40.5C 196.833,40.5 184.167,40.5 171.5,40.5C 171.228,34.1184 170.228,33.9518 168.5,40C 156.171,40.4999 143.838,40.6665 131.5,40.5C 131.533,36.1311 131.2,31.7978 130.5,27.5 Z"/></g>
<g><path style="opacity:1" fill="#5d238f" d="M 211.5,34.5 C 213.027,34.427 214.027,35.0937 214.5,36.5C 212.973,36.573 211.973,35.9063 211.5,34.5 Z"/></g>
<g><path style="opacity:1" fill="#562286" d="M 228.5,33.5 C 229.906,33.9731 230.573,34.9731 230.5,36.5C 229.094,36.0269 228.427,35.0269 228.5,33.5 Z"/></g>
<g><path style="opacity:1" fill="#572387" d="M 214.5,36.5 C 216.833,36.8333 218.167,38.1667 218.5,40.5C 216.833,39.5 215.5,38.1667 214.5,36.5 Z"/></g>
<g><path style="opacity:1" fill="#422e55" d="M 87.5,34.5 C 85.8333,36.8333 83.8333,38.8333 81.5,40.5C 82.5,37.5 84.5,35.5 87.5,34.5 Z"/></g>
<g><path style="opacity:1" fill="#9b45ee" d="M 224.5,29.5 C 226.167,30.5 227.5,31.8333 228.5,33.5C 228.427,35.0269 229.094,36.0269 230.5,36.5C 230.5,37.8333 230.5,39.1667 230.5,40.5C 229.469,41.2485 228.302,41.9152 227,42.5C 224.5,42.4567 222,42.1234 219.5,41.5C 219.5,40.8333 219.167,40.5 218.5,40.5C 218.167,38.1667 216.833,36.8333 214.5,36.5C 214.027,35.0937 213.027,34.427 211.5,34.5C 211.167,34.5 210.833,34.5 210.5,34.5C 209.5,33.8333 208.5,33.1667 207.5,32.5C 213.423,32.0273 219.423,31.8606 225.5,32C 224.748,31.3292 224.414,30.4959 224.5,29.5 Z"/></g>
<g><path style="opacity:1" fill="#050012" d="M 9.5,42.5 C 22.1667,42.5 34.8333,42.5 47.5,42.5C 47.5,55.1667 47.5,67.8333 47.5,80.5C 34.8333,80.5 22.1667,80.5 9.5,80.5C 9.5,67.8333 9.5,55.1667 9.5,42.5 Z"/></g>
<g><path style="opacity:1" fill="#050012" d="M 253.5,42.5 C 265.838,42.3335 278.171,42.5001 290.5,43C 291.489,55.42 291.822,67.92 291.5,80.5C 278.833,80.5 266.167,80.5 253.5,80.5C 253.5,67.8333 253.5,55.1667 253.5,42.5 Z"/></g>
<g><path style="opacity:1" fill="#050012" d="M 324.5,42.5 C 324.5,55.1667 324.5,67.8333 324.5,80.5C 314.167,80.5 303.833,80.5 293.5,80.5C 293.5,67.8333 293.5,55.1667 293.5,42.5C 303.833,42.5 314.167,42.5 324.5,42.5 Z"/></g>
<g><path style="opacity:1" fill="#1b0f27" d="M 81.5,40.5 C 80.5692,54.8042 80.2358,69.1375 80.5,83.5C 80.8016,86.0593 80.4682,88.3926 79.5,90.5C 79.5,74.8333 79.5,59.1667 79.5,43.5C 80.1667,42.5 80.8333,41.5 81.5,40.5 Z"/></g>
<g><path style="opacity:1" fill="#bd8aee" d="M 69.5,36.5 C 69.1667,39.1667 68.8333,41.8333 68.5,44.5C 71.8333,44.5 75.1667,44.5 78.5,44.5C 78.5,47.5 78.5,50.5 78.5,53.5C 75.1501,53.665 71.8168,53.4983 68.5,53C 67.5495,49.9433 67.2161,46.7766 67.5,43.5C 67.4095,40.8478 68.0762,38.5145 69.5,36.5 Z"/></g>
<g><path style="opacity:1" fill="#482f5d" d="M 109.5,48.5 C 110.906,48.9731 111.573,49.9731 111.5,51.5C 110.094,51.0269 109.427,50.0269 109.5,48.5 Z"/></g>
<g><path style="opacity:1" fill="#35194f" d="M 182.5,55.5 C 180.167,55.5 177.833,55.5 175.5,55.5C 175.5,66.1667 175.5,76.8333 175.5,87.5C 175.5,87.8333 175.5,88.1667 175.5,88.5C 174.539,86.7354 174.205,84.7354 174.5,82.5C 174.5,82.1667 174.5,81.8333 174.5,81.5C 174.5,72.5 174.5,63.5 174.5,54.5C 177.385,54.1936 180.052,54.5269 182.5,55.5 Z"/></g>
<g><path style="opacity:1" fill="#ac83d2" d="M 66.5,43.5 C 66.8333,43.5 67.1667,43.5 67.5,43.5C 67.2161,46.7766 67.5495,49.9433 68.5,53C 71.8168,53.4983 75.1501,53.665 78.5,53.5C 78.5,50.5 78.5,47.5 78.5,44.5C 78.5,43.8333 78.8333,43.5 79.5,43.5C 79.5,59.1667 79.5,74.8333 79.5,90.5C 79.5,91.1667 79.1667,91.5 78.5,91.5C 78.6657,87.1539 78.499,82.8206 78,78.5C 76.6472,79.7042 74.9806,80.3708 73,80.5C 71.0194,80.3708 69.3528,79.7042 68,78.5C 67.8195,81.6946 67.3195,84.6946 66.5,87.5C 66.5,72.8333 66.5,58.1667 66.5,43.5 Z"/></g>
<g><path style="opacity:1" fill="#cfa5f5" d="M 68.5,60.5 C 71.5,60.5 74.5,60.5 77.5,60.5C 77.5,65.1667 77.5,69.8333 77.5,74.5C 74.4281,74.8174 71.4281,74.4841 68.5,73.5C 67.3112,69.1833 67.3112,64.8499 68.5,60.5 Z"/></g>
<g><path style="opacity:1" fill="#c194eb" d="M 125.5,49.5 C 126.833,51.1667 128.167,52.8333 129.5,54.5C 129.5,54.8333 129.5,55.1667 129.5,55.5C 132.358,59.8832 134.692,64.5499 136.5,69.5C 133.081,70.3738 129.748,71.5405 126.5,73C 127.167,73.3333 127.833,73.6667 128.5,74C 127.309,74.6979 126.309,75.5313 125.5,76.5C 122.245,70.9916 119.245,65.325 116.5,59.5C 116.167,57.5 115.833,55.5 115.5,53.5C 118.263,53.2562 120.429,51.9229 122,49.5C 122.986,50.1712 124.153,50.1712 125.5,49.5 Z"/></g>
<g><path style="opacity:1" fill="#a257ea" d="M 230.5,40.5 C 231.222,40.9175 231.722,41.5842 232,42.5C 231.845,58.8647 232.679,74.8647 234.5,90.5C 234.5,90.8333 234.5,91.1667 234.5,91.5C 234.5,92.5 234.5,93.5 234.5,94.5C 230.66,91.9457 226.993,91.9457 223.5,94.5C 223.167,94.5 222.833,94.5 222.5,94.5C 221.668,78.005 221.168,61.3384 221,44.5C 220.487,43.4734 219.987,42.4734 219.5,41.5C 222,42.1234 224.5,42.4567 227,42.5C 228.302,41.9152 229.469,41.2485 230.5,40.5 Z"/></g>
<g><path style="opacity:1" fill="#7b41b2" d="M 230.5,36.5 C 231.5,37.8333 232.5,39.1667 233.5,40.5C 234.431,54.8042 234.764,69.1375 234.5,83.5C 234.5,85.8333 234.5,88.1667 234.5,90.5C 232.679,74.8647 231.845,58.8647 232,42.5C 231.722,41.5842 231.222,40.9175 230.5,40.5C 230.5,39.1667 230.5,37.8333 230.5,36.5 Z"/></g>
<g><path style="opacity:1" fill="#5e2e8c" d="M 182.5,66.5 C 181.508,73.6476 181.175,80.9809 181.5,88.5C 179.5,88.5 177.5,88.5 175.5,88.5C 175.5,88.1667 175.5,87.8333 175.5,87.5C 177.167,87.5 178.833,87.5 180.5,87.5C 180.169,80.1365 180.503,72.8032 181.5,65.5C 182.107,65.6236 182.44,65.9569 182.5,66.5 Z"/></g>
<g><path style="opacity:1" fill="#a054e9" d="M 182.5,55.5 C 183.338,55.8417 183.672,56.5084 183.5,57.5C 183.427,59.0269 184.094,60.0269 185.5,60.5C 185.427,62.0269 186.094,63.0269 187.5,63.5C 188.674,64.5137 189.34,65.847 189.5,67.5C 189.147,71.4647 190.813,74.1314 194.5,75.5C 194.5,75.8333 194.5,76.1667 194.5,76.5C 194.821,78.0481 195.821,78.7148 197.5,78.5C 197.5,70.8333 197.5,63.1667 197.5,55.5C 198.833,55.5 200.167,55.5 201.5,55.5C 201.5,66.1667 201.5,76.8333 201.5,87.5C 198.487,87.8928 195.82,87.2261 193.5,85.5C 193.672,84.5084 193.338,83.8417 192.5,83.5C 192.573,81.9731 191.906,80.9731 190.5,80.5C 190.672,79.5084 190.338,78.8417 189.5,78.5C 189.573,76.9731 188.906,75.9731 187.5,75.5C 186.099,72.3661 184.432,69.3661 182.5,66.5C 182.44,65.9569 182.107,65.6236 181.5,65.5C 180.503,72.8032 180.169,80.1365 180.5,87.5C 178.833,87.5 177.167,87.5 175.5,87.5C 175.5,76.8333 175.5,66.1667 175.5,55.5C 177.833,55.5 180.167,55.5 182.5,55.5 Z"/></g>
<g><path style="opacity:1" fill="#caa2f0" d="M 136.5,69.5 C 140.404,75.6343 144.071,81.9677 147.5,88.5C 143.285,90.4364 138.619,91.1031 133.5,90.5C 132.488,89.1283 131.488,87.795 130.5,86.5C 129.358,82.8832 127.692,79.5498 125.5,76.5C 126.309,75.5313 127.309,74.6979 128.5,74C 127.833,73.6667 127.167,73.3333 126.5,73C 129.748,71.5405 133.081,70.3738 136.5,69.5 Z"/></g>
<g><path style="opacity:1" fill="#070012" d="M 174.5,82.5 C 174.205,84.7354 174.539,86.7354 175.5,88.5C 177.5,88.5 179.5,88.5 181.5,88.5C 181.175,80.9809 181.508,73.6476 182.5,66.5C 184.432,69.3661 186.099,72.3661 187.5,75.5C 187.427,77.0269 188.094,78.0269 189.5,78.5C 190.338,78.8417 190.672,79.5084 190.5,80.5C 190.427,82.0269 191.094,83.0269 192.5,83.5C 193.338,83.8417 193.672,84.5084 193.5,85.5C 193.414,86.4959 193.748,87.3292 194.5,88C 197.146,88.4974 199.813,88.6641 202.5,88.5C 202.5,77.1667 202.5,65.8333 202.5,54.5C 200.5,54.5 198.5,54.5 196.5,54.5C 195.833,61.1667 195.167,67.8333 194.5,74.5C 193.066,71.9528 191.4,69.6195 189.5,67.5C 189.34,65.847 188.674,64.5137 187.5,63.5C 187.573,61.9731 186.906,60.9731 185.5,60.5C 185.573,58.9731 184.906,57.9731 183.5,57.5C 183.672,56.5084 183.338,55.8417 182.5,55.5C 180.052,54.5269 177.385,54.1936 174.5,54.5C 174.5,63.5 174.5,72.5 174.5,81.5C 173.504,81.5858 172.671,81.2524 172,80.5C 171.333,68.1667 171.333,55.8333 172,43.5C 184.42,42.5112 196.92,42.1779 209.5,42.5C 209.5,55.1667 209.5,67.8333 209.5,80.5C 207.5,80.5 205.5,80.5 203.5,80.5C 203.5,81.5 203.5,82.5 203.5,83.5C 205.5,83.5 207.5,83.5 209.5,83.5C 209.667,95.8378 209.5,108.171 209,120.5C 196.58,121.489 184.08,121.822 171.5,121.5C 171.333,108.829 171.5,96.1623 172,83.5C 172.671,82.7476 173.504,82.4142 174.5,82.5 Z"/></g>
<g><path style="opacity:1" fill="#3a1856" d="M 187.5,75.5 C 188.906,75.9731 189.573,76.9731 189.5,78.5C 188.094,78.0269 187.427,77.0269 187.5,75.5 Z"/></g>
<g><path style="opacity:1" fill="#8045b8" d="M 189.5,67.5 C 191.4,69.6195 193.066,71.9528 194.5,74.5C 194.5,74.8333 194.5,75.1667 194.5,75.5C 190.813,74.1314 189.147,71.4647 189.5,67.5 Z"/></g>
<g><path style="opacity:1" fill="#4b266d" d="M 185.5,60.5 C 186.906,60.9731 187.573,61.9731 187.5,63.5C 186.094,63.0269 185.427,62.0269 185.5,60.5 Z"/></g>
<g><path style="opacity:1" fill="#562c7d" d="M 183.5,57.5 C 184.906,57.9731 185.573,58.9731 185.5,60.5C 184.094,60.0269 183.427,59.0269 183.5,57.5 Z"/></g>
<g><path style="opacity:1" fill="#5e2f8c" d="M 196.5,55.5 C 196.5,55.1667 196.5,54.8333 196.5,54.5C 198.5,54.5 200.5,54.5 202.5,54.5C 202.5,65.8333 202.5,77.1667 202.5,88.5C 199.813,88.6641 197.146,88.4974 194.5,88C 193.748,87.3292 193.414,86.4959 193.5,85.5C 195.82,87.2261 198.487,87.8928 201.5,87.5C 201.5,76.8333 201.5,66.1667 201.5,55.5C 200.167,55.5 198.833,55.5 197.5,55.5C 197.167,55.5 196.833,55.5 196.5,55.5 Z"/></g>
<g><path style="opacity:1" fill="#894ac3" d="M 196.5,55.5 C 196.833,55.5 197.167,55.5 197.5,55.5C 197.5,63.1667 197.5,70.8333 197.5,78.5C 195.821,78.7148 194.821,78.0481 194.5,76.5C 195.117,76.6107 195.617,76.944 196,77.5C 196.5,70.1742 196.666,62.8409 196.5,55.5 Z"/></g>
<g><path style="opacity:1" fill="#2d1246" d="M 196.5,54.5 C 196.5,54.8333 196.5,55.1667 196.5,55.5C 196.666,62.8409 196.5,70.1742 196,77.5C 195.617,76.944 195.117,76.6107 194.5,76.5C 194.5,76.1667 194.5,75.8333 194.5,75.5C 194.5,75.1667 194.5,74.8333 194.5,74.5C 195.167,67.8333 195.833,61.1667 196.5,54.5 Z"/></g>
<g><path style="opacity:1" fill="#bd87ed" d="M 78.5,91.5 C 78.7406,93.8984 78.0739,95.8984 76.5,97.5C 76.5,96.5 76.5,95.5 76.5,94.5C 71.6069,93.738 67.2736,94.738 63.5,97.5C 65.2916,94.4541 66.2916,91.1207 66.5,87.5C 67.3195,84.6946 67.8195,81.6946 68,78.5C 69.3528,79.7042 71.0194,80.3708 73,80.5C 74.9806,80.3708 76.6472,79.7042 78,78.5C 78.499,82.8206 78.6657,87.1539 78.5,91.5 Z"/></g>
<g><path style="opacity:1" fill="#31154d" d="M 190.5,80.5 C 191.906,80.9731 192.573,81.9731 192.5,83.5C 191.094,83.0269 190.427,82.0269 190.5,80.5 Z"/></g>
<g><path style="opacity:1" fill="#050012" d="M 9.5,83.5 C 22.1667,83.5 34.8333,83.5 47.5,83.5C 47.5,96.1667 47.5,108.833 47.5,121.5C 34.8333,121.5 22.1667,121.5 9.5,121.5C 9.5,108.833 9.5,96.1667 9.5,83.5 Z"/></g>
<g><path style="opacity:1" fill="#0e0418" d="M 66.5,43.5 C 66.5,58.1667 66.5,72.8333 66.5,87.5C 66.2916,91.1207 65.2916,94.4541 63.5,97.5C 61.2241,99.3511 58.8907,101.018 56.5,102.5C 54.8333,102.5 53.1667,102.5 51.5,102.5C 51.5,107.167 51.5,111.833 51.5,116.5C 53.2161,116.629 54.8828,116.962 56.5,117.5C 56.8333,117.5 57.1667,117.5 57.5,117.5C 57.9731,118.906 58.9731,119.573 60.5,119.5C 60.8333,120.167 61.1667,120.833 61.5,121.5C 57.5633,121.793 53.73,121.46 50,120.5C 49.3333,108.5 49.3333,96.5 50,84.5C 55.0717,83.5286 60.2384,83.1953 65.5,83.5C 65.5,82.5 65.5,81.5 65.5,80.5C 65.1714,67.9887 65.5048,55.6554 66.5,43.5 Z"/></g>
<g><path style="opacity:1" fill="#090114" d="M 80.5,83.5 C 82.8333,83.5 85.1667,83.5 87.5,83.5C 87.5,96.1667 87.5,108.833 87.5,121.5C 84.5,121.5 81.5,121.5 78.5,121.5C 78.5,122.5 78.5,123.5 78.5,124.5C 77.6873,122.739 76.6873,121.072 75.5,119.5C 75.3404,117.847 74.6737,116.514 73.5,115.5C 72.7974,113.284 71.4641,111.451 69.5,110C 71.7899,108.223 73.4566,106.056 74.5,103.5C 75.1667,101.5 75.8333,99.5 76.5,97.5C 78.0739,95.8984 78.7406,93.8984 78.5,91.5C 79.1667,91.5 79.5,91.1667 79.5,90.5C 80.4682,88.3926 80.8016,86.0593 80.5,83.5 Z"/></g>
<g><path style="opacity:1" fill="#070113" d="M 94.5,22.5 C 94.8333,22.5 95.1667,22.5 95.5,22.5C 100.688,30.8751 105.355,39.5417 109.5,48.5C 109.427,50.0269 110.094,51.0269 111.5,51.5C 113.167,54.1667 114.833,56.8333 116.5,59.5C 119.245,65.325 122.245,70.9916 125.5,76.5C 127.692,79.5498 129.358,82.8832 130.5,86.5C 128.522,97.7854 127.855,109.452 128.5,121.5C 115.92,121.822 103.42,121.489 91,120.5C 90.5001,108.171 90.3335,95.8378 90.5,83.5C 102.851,83.8324 115.185,83.499 127.5,82.5C 126.975,81.8076 126.308,81.3076 125.5,81C 113.838,80.5001 102.171,80.3335 90.5,80.5C 90.3335,68.1622 90.5001,55.8288 91,43.5C 95.4145,42.6971 99.9145,42.1971 104.5,42C 100.028,40.5634 95.3614,40.0634 90.5,40.5C 90.5,38.5 90.5,36.5 90.5,34.5C 89.5,34.5 88.5,34.5 87.5,34.5C 87.5,33.8333 87.8333,33.5 88.5,33.5C 90.4352,32.8505 92.4352,32.5172 94.5,32.5C 94.5,29.1667 94.5,25.8333 94.5,22.5 Z"/></g>
<g><path style="opacity:1" fill="#060012" d="M 130.5,86.5 C 131.488,87.795 132.488,89.1283 133.5,90.5C 138.305,91.4872 143.305,91.8205 148.5,91.5C 148.737,90.209 148.404,89.209 147.5,88.5C 144.071,81.9677 140.404,75.6343 136.5,69.5C 134.692,64.5499 132.358,59.8832 129.5,55.5C 131.43,51.6273 132.097,47.294 131.5,42.5C 144.08,42.1779 156.58,42.5112 169,43.5C 169.5,55.8288 169.667,68.1622 169.5,80.5C 161.472,80.169 153.472,80.5023 145.5,81.5C 145.709,82.086 146.043,82.586 146.5,83C 154.159,83.4997 161.826,83.6664 169.5,83.5C 169.5,96.1667 169.5,108.833 169.5,121.5C 156.833,121.5 144.167,121.5 131.5,121.5C 131.746,109.803 131.413,98.1359 130.5,86.5 Z"/></g>
<g><path style="opacity:1" fill="#090014" d="M 234.5,83.5 C 239.833,83.5 245.167,83.5 250.5,83.5C 250.667,95.8378 250.5,108.171 250,120.5C 246.17,121.199 242.337,121.866 238.5,122.5C 238.81,120.856 239.81,119.856 241.5,119.5C 243.027,119.573 244.027,118.906 244.5,117.5C 246.167,117.5 247.833,117.5 249.5,117.5C 249.5,112.5 249.5,107.5 249.5,102.5C 248.167,102.5 246.833,102.5 245.5,102.5C 244.5,102.5 243.5,102.5 242.5,102.5C 242.167,101.5 241.5,100.833 240.5,100.5C 237.767,97.9255 235.767,94.9255 234.5,91.5C 234.5,91.1667 234.5,90.8333 234.5,90.5C 234.5,88.1667 234.5,85.8333 234.5,83.5 Z"/></g>
<g><path style="opacity:1" fill="#050012" d="M 253.5,83.5 C 266.167,83.5 278.833,83.5 291.5,83.5C 291.667,95.8378 291.5,108.171 291,120.5C 278.58,121.489 266.08,121.822 253.5,121.5C 253.5,108.833 253.5,96.1667 253.5,83.5 Z"/></g>
<g><path style="opacity:1" fill="#050012" d="M 324.5,83.5 C 324.5,96.1667 324.5,108.833 324.5,121.5C 314.167,121.5 303.833,121.5 293.5,121.5C 293.5,108.833 293.5,96.1667 293.5,83.5C 303.833,83.5 314.167,83.5 324.5,83.5 Z"/></g>
<g><path style="opacity:1" fill="#9577b2" d="M 147.5,88.5 C 148.404,89.209 148.737,90.209 148.5,91.5C 143.305,91.8205 138.305,91.4872 133.5,90.5C 138.619,91.1031 143.285,90.4364 147.5,88.5 Z"/></g>
<g><path style="opacity:1" fill="#c596f0" d="M 76.5,97.5 C 75.8333,99.5 75.1667,101.5 74.5,103.5C 74.1667,103.5 73.8333,103.5 73.5,103.5C 73.5299,102.503 73.0299,101.836 72,101.5C 69.3333,101.5 66.6667,101.5 64,101.5C 62.7387,101.759 61.7387,102.426 61,103.5C 60.5357,102.906 60.369,102.239 60.5,101.5C 62.2624,100.738 63.2624,99.4044 63.5,97.5C 67.2736,94.738 71.6069,93.738 76.5,94.5C 76.5,95.5 76.5,96.5 76.5,97.5 Z"/></g>
<g><path style="opacity:1" fill="#9d49ef" d="M 234.5,94.5 C 235.522,97.5223 237.522,99.5223 240.5,100.5C 241.5,100.833 242.167,101.5 242.5,102.5C 241.504,102.586 240.671,102.252 240,101.5C 235.786,101.827 231.952,102.827 228.5,104.5C 227.833,104.167 227.167,103.833 226.5,103.5C 226.34,101.847 225.674,100.514 224.5,99.5C 223.962,97.8828 223.629,96.2161 223.5,94.5C 226.993,91.9457 230.66,91.9457 234.5,94.5 Z"/></g>
<g><path style="opacity:1" fill="#692e9e" d="M 234.5,91.5 C 235.767,94.9255 237.767,97.9255 240.5,100.5C 237.522,99.5223 235.522,97.5223 234.5,94.5C 234.5,93.5 234.5,92.5 234.5,91.5 Z"/></g>
<g><path style="opacity:1" fill="#3d195e" d="M 222.5,94.5 C 222.833,94.5 223.167,94.5 223.5,94.5C 223.629,96.2161 223.962,97.8828 224.5,99.5C 222.787,98.3646 222.12,96.698 222.5,94.5 Z"/></g>
<g><path style="opacity:1" fill="#81629f" d="M 63.5,97.5 C 63.2624,99.4044 62.2624,100.738 60.5,101.5C 59.1667,101.833 57.8333,102.167 56.5,102.5C 58.8907,101.018 61.2241,99.3511 63.5,97.5 Z"/></g>
<g><path style="opacity:1" fill="#36115b" d="M 226.5,103.5 C 227.167,103.833 227.833,104.167 228.5,104.5C 229.833,106.167 231.167,107.833 232.5,109.5C 232.672,110.492 232.338,111.158 231.5,111.5C 229.833,108.833 228.167,106.167 226.5,103.5 Z"/></g>
<g><path style="opacity:1" fill="#4a197b" d="M 245.5,102.5 C 246.833,102.5 248.167,102.5 249.5,102.5C 249.5,107.5 249.5,112.5 249.5,117.5C 247.833,117.5 246.167,117.5 244.5,117.5C 245.833,116.833 247.167,116.167 248.5,115.5C 248.5,111.5 248.5,107.5 248.5,103.5C 247.209,103.737 246.209,103.404 245.5,102.5 Z"/></g>
<g><path style="opacity:1" fill="#9235e8" d="M 242.5,102.5 C 243.5,102.5 244.5,102.5 245.5,102.5C 246.209,103.404 247.209,103.737 248.5,103.5C 248.5,107.5 248.5,111.5 248.5,115.5C 242.234,115.615 236.901,113.615 232.5,109.5C 231.167,107.833 229.833,106.167 228.5,104.5C 231.952,102.827 235.786,101.827 240,101.5C 240.671,102.252 241.504,102.586 242.5,102.5 Z"/></g>
<g><path style="opacity:1" fill="#d0aaf7" d="M 60.5,101.5 C 60.369,102.239 60.5357,102.906 61,103.5C 61.7387,102.426 62.7387,101.759 64,101.5C 66.6667,101.5 69.3333,101.5 72,101.5C 73.0299,101.836 73.5299,102.503 73.5,103.5C 72.1667,105.5 70.5,107.167 68.5,108.5C 63.7254,111.871 58.3921,113.871 52.5,114.5C 52.5,110.833 52.5,107.167 52.5,103.5C 54.099,103.768 55.4324,103.434 56.5,102.5C 57.8333,102.167 59.1667,101.833 60.5,101.5 Z"/></g>
<g><path style="opacity:1" fill="#422e56" d="M 73.5,103.5 C 73.8333,103.5 74.1667,103.5 74.5,103.5C 73.4566,106.056 71.7899,108.223 69.5,110C 71.4641,111.451 72.7974,113.284 73.5,115.5C 70.6356,113.977 68.969,111.643 68.5,108.5C 70.5,107.167 72.1667,105.5 73.5,103.5 Z"/></g>
<g><path style="opacity:1" fill="#9172ae" d="M 56.5,102.5 C 55.4324,103.434 54.099,103.768 52.5,103.5C 52.5,107.167 52.5,110.833 52.5,114.5C 54.0764,115.143 55.4097,116.143 56.5,117.5C 54.8828,116.962 53.2161,116.629 51.5,116.5C 51.5,111.833 51.5,107.167 51.5,102.5C 53.1667,102.5 54.8333,102.5 56.5,102.5 Z"/></g>
<g><path style="opacity:1" fill="#c296ea" d="M 68.5,108.5 C 68.969,111.643 70.6356,113.977 73.5,115.5C 74.6737,116.514 75.3404,117.847 75.5,119.5C 71.181,118.29 66.8476,118.29 62.5,119.5C 63.8532,120.524 64.5198,121.857 64.5,123.5C 64.1667,123.5 63.8333,123.5 63.5,123.5C 63.5,122.167 62.8333,121.5 61.5,121.5C 61.1667,120.833 60.8333,120.167 60.5,119.5C 60.0269,118.094 59.0269,117.427 57.5,117.5C 57.1667,117.5 56.8333,117.5 56.5,117.5C 55.4097,116.143 54.0764,115.143 52.5,114.5C 58.3921,113.871 63.7254,111.871 68.5,108.5 Z"/></g>
<g><path style="opacity:1" fill="#6d5389" d="M 57.5,117.5 C 59.0269,117.427 60.0269,118.094 60.5,119.5C 58.9731,119.573 57.9731,118.906 57.5,117.5 Z"/></g>
<g><path style="opacity:1" fill="#38145b" d="M 244.5,117.5 C 244.027,118.906 243.027,119.573 241.5,119.5C 241.973,118.094 242.973,117.427 244.5,117.5 Z"/></g>
<g><path style="opacity:1" fill="#7f35c6" d="M 232.5,109.5 C 236.901,113.615 242.234,115.615 248.5,115.5C 247.167,116.167 245.833,116.833 244.5,117.5C 242.973,117.427 241.973,118.094 241.5,119.5C 239.81,119.856 238.81,120.856 238.5,122.5C 237.5,123.167 236.5,123.833 235.5,124.5C 235.5,123.167 235.5,121.833 235.5,120.5C 231.917,120.68 228.251,121.014 224.5,121.5C 225.11,120.609 225.443,119.609 225.5,118.5C 226.757,115.573 228.757,113.239 231.5,111.5C 232.338,111.158 232.672,110.492 232.5,109.5 Z"/></g>
<g><path style="opacity:1" fill="#3e1961" d="M 225.5,118.5 C 225.443,119.609 225.11,120.609 224.5,121.5C 224.167,121.5 223.833,121.5 223.5,121.5C 223.427,119.973 224.094,118.973 225.5,118.5 Z"/></g>
<g><path style="opacity:1" fill="#050012" d="M 9.5,124.5 C 22.1667,124.5 34.8333,124.5 47.5,124.5C 47.5,136.833 47.5,149.167 47.5,161.5C 34.8333,161.5 22.1667,161.5 9.5,161.5C 9.5,149.167 9.5,136.833 9.5,124.5 Z"/></g>
<g><path style="opacity:1" fill="#0b0315" d="M 128.5,159.5 C 128.818,154.968 128.485,150.634 127.5,146.5C 127.586,145.504 127.252,144.671 126.5,144C 120.509,143.501 114.509,143.334 108.5,143.5C 108.5,141.5 108.5,139.5 108.5,137.5C 115.022,137.823 121.355,137.49 127.5,136.5C 127.5,134.5 127.5,132.5 127.5,130.5C 119.493,130.334 111.493,130.5 103.5,131C 103,131.5 102.5,132 102,132.5C 101.185,137.352 101.352,142.019 102.5,146.5C 102.5,146.833 102.5,147.167 102.5,147.5C 103.262,149.262 104.596,150.262 106.5,150.5C 111.305,151.487 116.305,151.821 121.5,151.5C 121.5,153.167 121.5,154.833 121.5,156.5C 114.978,156.177 108.645,156.51 102.5,157.5C 102.5,159.5 102.5,161.5 102.5,163.5C 98.8274,161.682 94.8274,161.016 90.5,161.5C 90.5,149.167 90.5,136.833 90.5,124.5C 103.167,124.5 115.833,124.5 128.5,124.5C 128.618,136.304 128.618,147.971 128.5,159.5 Z"/></g>
<g><path style="opacity:1" fill="#080013" d="M 169.5,130.5 C 169.167,130.5 168.833,130.5 168.5,130.5C 168.443,129.391 168.11,128.391 167.5,127.5C 162.36,126.512 157.026,126.179 151.5,126.5C 151.263,127.791 151.596,128.791 152.5,129.5C 153.338,129.842 153.672,130.508 153.5,131.5C 153.427,133.027 154.094,134.027 155.5,134.5C 156.674,135.514 157.34,136.847 157.5,138.5C 157.427,140.027 158.094,141.027 159.5,141.5C 161.267,143.938 162.601,146.605 163.5,149.5C 163.427,151.027 164.094,152.027 165.5,152.5C 167.674,155.515 169.341,158.849 170.5,162.5C 157.537,161.557 144.537,161.223 131.5,161.5C 131.5,149.167 131.5,136.833 131.5,124.5C 144.167,124.5 156.833,124.5 169.5,124.5C 169.5,126.5 169.5,128.5 169.5,130.5 Z"/></g>
<g><path style="opacity:1" fill="#060012" d="M 187.5,162.5 C 186.167,160.833 184.833,159.167 183.5,157.5C 181.561,152.91 179.227,148.577 176.5,144.5C 176.573,142.973 175.906,141.973 174.5,141.5C 173.674,138.515 172.341,135.849 170.5,133.5C 170.5,133.167 170.5,132.833 170.5,132.5C 171.473,130.052 171.806,127.385 171.5,124.5C 184.167,124.5 196.833,124.5 209.5,124.5C 209.5,136.833 209.5,149.167 209.5,161.5C 201.981,161.175 194.648,161.508 187.5,162.5 Z"/></g>
<g><path style="opacity:1" fill="#050012" d="M 253.5,124.5 C 266.167,124.5 278.833,124.5 291.5,124.5C 291.5,136.833 291.5,149.167 291.5,161.5C 278.833,161.5 266.167,161.5 253.5,161.5C 253.5,149.167 253.5,136.833 253.5,124.5 Z"/></g>
<g><path style="opacity:1" fill="#050012" d="M 324.5,124.5 C 324.5,136.833 324.5,149.167 324.5,161.5C 314.167,161.5 303.833,161.5 293.5,161.5C 293.5,149.167 293.5,136.833 293.5,124.5C 303.833,124.5 314.167,124.5 324.5,124.5 Z"/></g>
<g><path style="opacity:1" fill="#cca8f2" d="M 75.5,119.5 C 75.372,121.655 75.872,123.655 77,125.5C 77.4999,141.497 77.6666,157.497 77.5,173.5C 73.7429,173.286 73.0762,174.286 75.5,176.5C 73.604,177.466 71.604,177.799 69.5,177.5C 69.5,178.833 69.5,180.167 69.5,181.5C 68.2028,179.629 67.2028,177.629 66.5,175.5C 66.6666,159.497 66.4999,143.497 66,127.5C 65.5899,126.099 65.0899,124.766 64.5,123.5C 64.5198,121.857 63.8532,120.524 62.5,119.5C 66.8476,118.29 71.181,118.29 75.5,119.5 Z"/></g>
<g><path style="opacity:1" fill="#391c55" d="M 167.5,127.5 C 162.056,126.892 157.056,127.558 152.5,129.5C 151.596,128.791 151.263,127.791 151.5,126.5C 157.026,126.179 162.36,126.512 167.5,127.5 Z"/></g>
<g><path style="opacity:1" fill="#421f65" d="M 223.5,121.5 C 223.741,123.898 223.074,125.898 221.5,127.5C 221.5,126.167 221.5,124.833 221.5,123.5C 222.167,122.833 222.833,122.167 223.5,121.5 Z"/></g>
<g><path style="opacity:1" fill="#a159e9" d="M 167.5,127.5 C 168.11,128.391 168.443,129.391 168.5,130.5C 168.427,132.027 169.094,133.027 170.5,133.5C 172.341,135.849 173.674,138.515 174.5,141.5C 174.427,143.027 175.094,144.027 176.5,144.5C 179.227,148.577 181.561,152.91 183.5,157.5C 181.976,156.826 180.642,155.826 179.5,154.5C 177.664,155.919 175.664,157.086 173.5,158C 171.963,159.11 171.297,160.61 171.5,162.5C 171.167,162.5 170.833,162.5 170.5,162.5C 169.341,158.849 167.674,155.515 165.5,152.5C 165.573,150.973 164.906,149.973 163.5,149.5C 162.601,146.605 161.267,143.938 159.5,141.5C 159.573,139.973 158.906,138.973 157.5,138.5C 157.34,136.847 156.674,135.514 155.5,134.5C 155.573,132.973 154.906,131.973 153.5,131.5C 153.672,130.508 153.338,129.842 152.5,129.5C 157.056,127.558 162.056,126.892 167.5,127.5 Z"/></g>
<g><path style="opacity:1" fill="#a358ec" d="M 235.5,124.5 C 235.371,126.216 235.038,127.883 234.5,129.5C 233.732,130.263 233.232,131.263 233,132.5C 232.5,147.496 232.333,162.496 232.5,177.5C 232.567,178.959 232.234,180.292 231.5,181.5C 229.744,182.552 229.077,184.219 229.5,186.5C 227.833,187.833 226.167,189.167 224.5,190.5C 222.085,189.186 219.252,188.519 216,188.5C 212.567,188.597 209.4,189.263 206.5,190.5C 206.5,189.5 206.5,188.5 206.5,187.5C 212.132,187.692 216.132,185.359 218.5,180.5C 219.11,179.609 219.443,178.609 219.5,177.5C 220.222,177.082 220.722,176.416 221,175.5C 221.5,159.503 221.667,143.503 221.5,127.5C 223.074,125.898 223.741,123.898 223.5,121.5C 223.833,121.5 224.167,121.5 224.5,121.5C 228.251,121.014 231.917,120.68 235.5,120.5C 235.5,121.833 235.5,123.167 235.5,124.5 Z"/></g>
<g><path style="opacity:1" fill="#9377af" d="M 127.5,136.5 C 120.833,136.5 114.167,136.5 107.5,136.5C 113.645,135.51 119.978,135.177 126.5,135.5C 126.5,134.167 126.5,132.833 126.5,131.5C 119.159,131.334 111.826,131.5 104.5,132C 104,132.5 103.5,133 103,133.5C 102.501,137.821 102.334,142.154 102.5,146.5C 101.352,142.019 101.185,137.352 102,132.5C 102.5,132 103,131.5 103.5,131C 111.493,130.5 119.493,130.334 127.5,130.5C 127.5,132.5 127.5,134.5 127.5,136.5 Z"/></g>
<g><path style="opacity:1" fill="#cea9f3" d="M 107.5,136.5 C 107.5,139.167 107.5,141.833 107.5,144.5C 113.509,144.334 119.509,144.501 125.5,145C 126.044,145.717 126.711,146.217 127.5,146.5C 120.576,148.463 113.243,149.13 105.5,148.5C 104.609,147.89 103.609,147.557 102.5,147.5C 102.5,147.167 102.5,146.833 102.5,146.5C 102.334,142.154 102.501,137.821 103,133.5C 103.5,133 104,132.5 104.5,132C 111.826,131.5 119.159,131.334 126.5,131.5C 126.5,132.833 126.5,134.167 126.5,135.5C 119.978,135.177 113.645,135.51 107.5,136.5 Z"/></g>
<g><path style="opacity:1" fill="#9c7eb8" d="M 75.5,119.5 C 76.6873,121.072 77.6873,122.739 78.5,124.5C 79.2605,141.48 79.7605,158.48 80,175.5C 80.6077,177.154 81.1077,178.821 81.5,180.5C 78.9203,178.911 77.587,176.578 77.5,173.5C 77.6666,157.497 77.4999,141.497 77,125.5C 75.872,123.655 75.372,121.655 75.5,119.5 Z"/></g>
<g><path style="opacity:1" fill="#582d82" d="M 168.5,130.5 C 168.833,130.5 169.167,130.5 169.5,130.5C 169.833,131.167 170.167,131.833 170.5,132.5C 170.5,132.833 170.5,133.167 170.5,133.5C 169.094,133.027 168.427,132.027 168.5,130.5 Z"/></g>
<g><path style="opacity:1" fill="#211932" d="M 63.5,123.5 C 63.8333,123.5 64.1667,123.5 64.5,123.5C 65.0899,124.766 65.5899,126.099 66,127.5C 66.4999,143.497 66.6666,159.497 66.5,175.5C 65.5206,172.375 65.1872,169.042 65.5,165.5C 65.6665,153.829 65.4999,142.162 65,130.5C 64.5604,128.134 64.0604,125.801 63.5,123.5 Z"/></g>
<g><path style="opacity:1" fill="#3d1d59" d="M 153.5,131.5 C 154.906,131.973 155.573,132.973 155.5,134.5C 154.094,134.027 153.427,133.027 153.5,131.5 Z"/></g>
<g><path style="opacity:1" fill="#32174b" d="M 221.5,127.5 C 221.667,143.503 221.5,159.503 221,175.5C 220.722,176.416 220.222,177.082 219.5,177.5C 220.125,160.693 220.791,144.026 221.5,127.5 Z"/></g>
<g><path style="opacity:1" fill="#443256" d="M 107.5,136.5 C 114.167,136.5 120.833,136.5 127.5,136.5C 121.355,137.49 115.022,137.823 108.5,137.5C 108.5,139.5 108.5,141.5 108.5,143.5C 114.509,143.334 120.509,143.501 126.5,144C 127.252,144.671 127.586,145.504 127.5,146.5C 126.711,146.217 126.044,145.717 125.5,145C 119.509,144.501 113.509,144.334 107.5,144.5C 107.5,141.833 107.5,139.167 107.5,136.5 Z"/></g>
<g><path style="opacity:1" fill="#482169" d="M 157.5,138.5 C 158.906,138.973 159.573,139.973 159.5,141.5C 158.094,141.027 157.427,140.027 157.5,138.5 Z"/></g>
<g><path style="opacity:1" fill="#5e348b" d="M 174.5,141.5 C 175.906,141.973 176.573,142.973 176.5,144.5C 175.094,144.027 174.427,143.027 174.5,141.5 Z"/></g>
<g><path style="opacity:1" fill="#765295" d="M 102.5,147.5 C 103.609,147.557 104.609,147.89 105.5,148.5C 111.167,149.167 116.833,149.833 122.5,150.5C 117.167,150.5 111.833,150.5 106.5,150.5C 104.596,150.262 103.262,149.262 102.5,147.5 Z"/></g>
<g><path style="opacity:1" fill="#412162" d="M 163.5,149.5 C 164.906,149.973 165.573,150.973 165.5,152.5C 164.094,152.027 163.427,151.027 163.5,149.5 Z"/></g>
<g><path style="opacity:1" fill="#723ca4" d="M 234.5,129.5 C 234.5,141.5 234.5,153.5 234.5,165.5C 234.665,168.85 234.498,172.183 234,175.5C 233.722,176.416 233.222,177.082 232.5,177.5C 232.333,162.496 232.5,147.496 233,132.5C 233.232,131.263 233.732,130.263 234.5,129.5 Z"/></g>
<g><path style="opacity:1" fill="#251938" d="M 106.5,150.5 C 111.833,150.5 117.167,150.5 122.5,150.5C 122.5,152.833 122.5,155.167 122.5,157.5C 115.833,157.5 109.167,157.5 102.5,157.5C 108.645,156.51 114.978,156.177 121.5,156.5C 121.5,154.833 121.5,153.167 121.5,151.5C 116.305,151.821 111.305,151.487 106.5,150.5 Z"/></g>
<g><path style="opacity:1" fill="#c59aee" d="M 127.5,146.5 C 128.485,150.634 128.818,154.968 128.5,159.5C 127.833,160.833 126.833,161.833 125.5,162.5C 118.167,162.5 110.833,162.5 103.5,162.5C 103.5,161.167 103.5,159.833 103.5,158.5C 110.022,158.823 116.355,158.49 122.5,157.5C 122.5,155.167 122.5,152.833 122.5,150.5C 116.833,149.833 111.167,149.167 105.5,148.5C 113.243,149.13 120.576,148.463 127.5,146.5 Z"/></g>
<g><path style="opacity:1" fill="#9575b7" d="M 102.5,157.5 C 109.167,157.5 115.833,157.5 122.5,157.5C 116.355,158.49 110.022,158.823 103.5,158.5C 103.5,159.833 103.5,161.167 103.5,162.5C 110.833,162.5 118.167,162.5 125.5,162.5C 118.018,163.492 110.352,163.825 102.5,163.5C 102.5,161.5 102.5,159.5 102.5,157.5 Z"/></g>
<g><path style="opacity:1" fill="#9f50ec" d="M 183.5,157.5 C 184.833,159.167 186.167,160.833 187.5,162.5C 187.557,163.609 187.89,164.609 188.5,165.5C 188.5,165.833 188.5,166.167 188.5,166.5C 188.241,168.989 189.241,170.656 191.5,171.5C 192.674,172.514 193.34,173.847 193.5,175.5C 193.5,176.833 193.5,178.167 193.5,179.5C 192.469,177.118 191.136,174.784 189.5,172.5C 188.575,173.641 187.741,173.641 187,172.5C 185.899,174.394 184.566,175.061 183,174.5C 181.955,175.373 181.122,176.373 180.5,177.5C 179.833,177.167 179.167,176.833 178.5,176.5C 178.008,174.181 177.008,172.181 175.5,170.5C 175.573,168.973 174.906,167.973 173.5,167.5C 173.672,166.508 173.338,165.842 172.5,165.5C 172.443,164.391 172.11,163.391 171.5,162.5C 171.297,160.61 171.963,159.11 173.5,158C 175.664,157.086 177.664,155.919 179.5,154.5C 180.642,155.826 181.976,156.826 183.5,157.5 Z"/></g>
<g><path style="opacity:1" fill="#33164d" d="M 170.5,162.5 C 170.833,162.5 171.167,162.5 171.5,162.5C 172.11,163.391 172.443,164.391 172.5,165.5C 172.167,165.5 171.833,165.5 171.5,165.5C 170.89,164.609 170.557,163.609 170.5,162.5 Z"/></g>
<g><path style="opacity:1" fill="#050012" d="M 9.5,165.5 C 22.1667,165.5 34.8333,165.5 47.5,165.5C 47.5,177.833 47.5,190.167 47.5,202.5C 34.8333,202.5 22.1667,202.5 9.5,202.5C 9.5,190.167 9.5,177.833 9.5,165.5 Z"/></g>
<g><path style="opacity:1" fill="#080113" d="M 65.5,165.5 C 65.1872,169.042 65.5206,172.375 66.5,175.5C 67.2028,177.629 68.2028,179.629 69.5,181.5C 69.7497,183.674 70.7497,185.341 72.5,186.5C 74.8713,191.202 78.538,194.536 83.5,196.5C 86.5072,198.175 89.8405,198.841 93.5,198.5C 92.791,199.404 91.791,199.737 90.5,199.5C 89.5,199.5 88.5,199.5 87.5,199.5C 87.5,200.5 87.5,201.5 87.5,202.5C 74.8333,202.5 62.1667,202.5 49.5,202.5C 49.5,190.167 49.5,177.833 49.5,165.5C 54.8333,165.5 60.1667,165.5 65.5,165.5 Z"/></g>
<g><path style="opacity:1" fill="#080114" d="M 78.5,124.5 C 81.5,124.5 84.5,124.5 87.5,124.5C 87.5,136.833 87.5,149.167 87.5,161.5C 85.1667,161.5 82.8333,161.5 80.5,161.5C 80.5,162.833 80.5,164.167 80.5,165.5C 82.8333,165.5 85.1667,165.5 87.5,165.5C 87.5,171.833 87.5,178.167 87.5,184.5C 88.5,184.5 89.5,184.5 90.5,184.5C 90.5,178.167 90.5,171.833 90.5,165.5C 103.167,165.5 115.833,165.5 128.5,165.5C 128.5,172.167 128.5,178.833 128.5,185.5C 129.5,185.5 130.5,185.5 131.5,185.5C 143.345,185.172 155.012,185.505 166.5,186.5C 142.167,186.5 117.833,186.5 93.5,186.5C 91.0971,186.552 88.7638,186.219 86.5,185.5C 85.1667,183.5 83.5,181.833 81.5,180.5C 81.1077,178.821 80.6077,177.154 80,175.5C 79.7605,158.48 79.2605,141.48 78.5,124.5 Z"/></g>
<g><path style="opacity:1" fill="#060012" d="M 169.5,190.5 C 168.833,189.833 168.167,189.167 167.5,188.5C 167.672,187.508 167.338,186.842 166.5,186.5C 155.012,185.505 143.345,185.172 131.5,185.5C 131.5,178.833 131.5,172.167 131.5,165.5C 144.167,165.5 156.833,165.5 169.5,165.5C 169.5,173.833 169.5,182.167 169.5,190.5 Z"/></g>
<g><path style="opacity:1" fill="#080013" d="M 188.5,166.5 C 188.5,166.167 188.5,165.833 188.5,165.5C 195.5,165.5 202.5,165.5 209.5,165.5C 208.877,172.255 209.544,178.588 211.5,184.5C 210.22,185.931 208.553,186.598 206.5,186.5C 205.683,188.969 205.183,191.635 205,194.5C 204.617,193.944 204.117,193.611 203.5,193.5C 203.34,191.847 202.674,190.514 201.5,189.5C 201.573,187.973 200.906,186.973 199.5,186.5C 198.244,182.313 196.244,178.646 193.5,175.5C 193.34,173.847 192.674,172.514 191.5,171.5C 190.89,169.566 189.89,167.899 188.5,166.5 Z"/></g>
<g><path style="opacity:1" fill="#060012" d="M 234.5,165.5 C 239.833,165.5 245.167,165.5 250.5,165.5C 250.5,177.833 250.5,190.167 250.5,202.5C 236.989,203.087 223.656,202.42 210.5,200.5C 210.5,200.167 210.5,199.833 210.5,199.5C 213.542,199.267 216.208,198.267 218.5,196.5C 220.23,195.974 221.564,194.974 222.5,193.5C 225.833,192.167 228.167,189.833 229.5,186.5C 230.931,185.22 231.598,183.553 231.5,181.5C 232.234,180.292 232.567,178.959 232.5,177.5C 233.222,177.082 233.722,176.416 234,175.5C 234.498,172.183 234.665,168.85 234.5,165.5 Z"/></g>
<g><path style="opacity:1" fill="#050012" d="M 253.5,165.5 C 266.167,165.5 278.833,165.5 291.5,165.5C 291.5,177.833 291.5,190.167 291.5,202.5C 278.833,202.5 266.167,202.5 253.5,202.5C 253.5,190.167 253.5,177.833 253.5,165.5 Z"/></g>
<g><path style="opacity:1" fill="#050012" d="M 324.5,165.5 C 324.5,177.833 324.5,190.167 324.5,202.5C 314.167,202.5 303.833,202.5 293.5,202.5C 293.5,190.167 293.5,177.833 293.5,165.5C 303.833,165.5 314.167,165.5 324.5,165.5 Z"/></g>
<g><path style="opacity:1" fill="#0c0216" d="M 171.5,165.5 C 171.833,165.5 172.167,165.5 172.5,165.5C 173.338,165.842 173.672,166.508 173.5,167.5C 173.427,169.027 174.094,170.027 175.5,170.5C 177.008,172.181 178.008,174.181 178.5,176.5C 178.427,178.027 179.094,179.027 180.5,179.5C 182.341,181.849 183.674,184.515 184.5,187.5C 184.427,189.027 185.094,190.027 186.5,190.5C 188.008,192.181 189.008,194.181 189.5,196.5C 189.414,197.496 189.748,198.329 190.5,199C 194.486,199.499 198.486,199.666 202.5,199.5C 205.167,199.5 207.833,199.5 210.5,199.5C 210.5,199.833 210.5,200.167 210.5,200.5C 204.071,201.794 197.405,202.461 190.5,202.5C 183.664,202.461 176.997,201.794 170.5,200.5C 164.003,201.794 157.336,202.461 150.5,202.5C 143.536,202.444 136.703,201.777 130,200.5C 116.975,202.44 103.808,203.106 90.5,202.5C 90.5,201.5 90.5,200.5 90.5,199.5C 91.791,199.737 92.791,199.404 93.5,198.5C 94.1667,195.833 94.8333,193.167 95.5,190.5C 96.5,192.5 97.5,194.5 98.5,196.5C 98.8333,197.167 99.1667,197.833 99.5,198.5C 123.661,199.498 147.994,199.831 172.5,199.5C 172.737,198.209 172.404,197.209 171.5,196.5C 171.443,195.391 171.11,194.391 170.5,193.5C 171.494,184.348 171.827,175.015 171.5,165.5 Z"/></g>
<g><path style="opacity:1" fill="#421d64" d="M 173.5,167.5 C 174.906,167.973 175.573,168.973 175.5,170.5C 174.094,170.027 173.427,169.027 173.5,167.5 Z"/></g>
<g><path style="opacity:1" fill="#7638b1" d="M 188.5,166.5 C 189.89,167.899 190.89,169.566 191.5,171.5C 189.241,170.656 188.241,168.989 188.5,166.5 Z"/></g>
<g><path style="opacity:1" fill="#421b64" d="M 178.5,176.5 C 179.167,176.833 179.833,177.167 180.5,177.5C 180.5,178.167 180.5,178.833 180.5,179.5C 179.094,179.027 178.427,178.027 178.5,176.5 Z"/></g>
<g><path style="opacity:1" fill="#c69aee" d="M 77.5,173.5 C 77.587,176.578 78.9203,178.911 81.5,180.5C 83.5,181.833 85.1667,183.5 86.5,185.5C 81.9296,186.441 77.263,186.774 72.5,186.5C 70.7497,185.341 69.7497,183.674 69.5,181.5C 69.5,180.167 69.5,178.833 69.5,177.5C 71.604,177.799 73.604,177.466 75.5,176.5C 73.0762,174.286 73.7429,173.286 77.5,173.5 Z"/></g>
<g><path style="opacity:1" fill="#853aca" d="M 193.5,175.5 C 196.244,178.646 198.244,182.313 199.5,186.5C 196.018,185.357 194.018,183.024 193.5,179.5C 193.5,178.167 193.5,176.833 193.5,175.5 Z"/></g>
<g><path style="opacity:1" fill="#6e3a9f" d="M 231.5,181.5 C 231.598,183.553 230.931,185.22 229.5,186.5C 229.077,184.219 229.744,182.552 231.5,181.5 Z"/></g>
<g><path style="opacity:1" fill="#9b44ec" d="M 193.5,179.5 C 194.018,183.024 196.018,185.357 199.5,186.5C 199.427,188.027 200.094,189.027 201.5,189.5C 201.833,192.167 202.167,194.833 202.5,197.5C 200.585,197.216 198.919,197.549 197.5,198.5C 194.487,198.893 191.82,198.226 189.5,196.5C 189.008,194.181 188.008,192.181 186.5,190.5C 186.573,188.973 185.906,187.973 184.5,187.5C 183.674,184.515 182.341,181.849 180.5,179.5C 180.5,178.833 180.5,178.167 180.5,177.5C 181.122,176.373 181.955,175.373 183,174.5C 184.566,175.061 185.899,174.394 187,172.5C 187.741,173.641 188.575,173.641 189.5,172.5C 191.136,174.784 192.469,177.118 193.5,179.5 Z"/></g>
<g><path style="opacity:1" fill="#be8dea" d="M 86.5,185.5 C 88.7638,186.219 91.0971,186.552 93.5,186.5C 93.5,187.167 93.8333,187.5 94.5,187.5C 94.5,188.167 94.5,188.833 94.5,189.5C 93.5269,191.948 93.1936,194.615 93.5,197.5C 90.1401,197.384 86.8067,197.051 83.5,196.5C 78.538,194.536 74.8713,191.202 72.5,186.5C 77.263,186.774 81.9296,186.441 86.5,185.5 Z"/></g>
<g><path style="opacity:1" fill="#6b4d88" d="M 93.5,186.5 C 117.833,186.5 142.167,186.5 166.5,186.5C 167.338,186.842 167.672,187.508 167.5,188.5C 157.249,187.525 146.915,187.192 136.5,187.5C 129.833,187.5 123.167,187.5 116.5,187.5C 109.167,187.5 101.833,187.5 94.5,187.5C 93.8333,187.5 93.5,187.167 93.5,186.5 Z"/></g>
<g><path style="opacity:1" fill="#6c389e" d="M 218.5,180.5 C 216.132,185.359 212.132,187.692 206.5,187.5C 206.5,187.167 206.5,186.833 206.5,186.5C 208.553,186.598 210.22,185.931 211.5,184.5C 214.303,184.039 216.637,182.705 218.5,180.5 Z"/></g>
<g><path style="opacity:1" fill="#cca4f4" d="M 94.5,187.5 C 101.833,187.5 109.167,187.5 116.5,187.5C 116.5,190.833 116.5,194.167 116.5,197.5C 110.455,197.697 104.455,197.363 98.5,196.5C 97.5,194.5 96.5,192.5 95.5,190.5C 95.5,189.833 95.1667,189.5 94.5,189.5C 94.5,188.833 94.5,188.167 94.5,187.5 Z"/></g>
<g><path style="opacity:1" fill="#c394ed" d="M 116.5,187.5 C 123.167,187.5 129.833,187.5 136.5,187.5C 137.166,190.836 137.166,194.003 136.5,197C 137.737,197.232 138.737,197.732 139.5,198.5C 126.167,198.5 112.833,198.5 99.5,198.5C 99.1667,197.833 98.8333,197.167 98.5,196.5C 104.455,197.363 110.455,197.697 116.5,197.5C 116.5,194.167 116.5,190.833 116.5,187.5 Z"/></g>
<g><path style="opacity:1" fill="#bc86ed" d="M 136.5,187.5 C 146.915,187.192 157.249,187.525 167.5,188.5C 168.167,189.167 168.833,189.833 169.5,190.5C 169.557,191.609 169.89,192.609 170.5,193.5C 171.11,194.391 171.443,195.391 171.5,196.5C 161.219,198.476 150.552,199.143 139.5,198.5C 138.737,197.732 137.737,197.232 136.5,197C 137.166,194.003 137.166,190.836 136.5,187.5 Z"/></g>
<g><path style="opacity:1" fill="#521e81" d="M 199.5,186.5 C 200.906,186.973 201.573,187.973 201.5,189.5C 200.094,189.027 199.427,188.027 199.5,186.5 Z"/></g>
<g><path style="opacity:1" fill="#39185d" d="M 206.5,186.5 C 206.5,186.833 206.5,187.167 206.5,187.5C 206.5,188.5 206.5,189.5 206.5,190.5C 206.5,192.5 206.5,194.5 206.5,196.5C 204.5,196.5 203.5,195.5 203.5,193.5C 204.117,193.611 204.617,193.944 205,194.5C 205.183,191.635 205.683,188.969 206.5,186.5 Z"/></g>
<g><path style="opacity:1" fill="#3c165d" d="M 184.5,187.5 C 185.906,187.973 186.573,188.973 186.5,190.5C 185.094,190.027 184.427,189.027 184.5,187.5 Z"/></g>
<g><path style="opacity:1" fill="#9d49ee" d="M 224.5,190.5 C 223.833,191.5 223.167,192.5 222.5,193.5C 220.181,193.992 218.181,194.992 216.5,196.5C 215.167,196.833 213.833,197.167 212.5,197.5C 210.265,197.795 208.265,197.461 206.5,196.5C 206.5,194.5 206.5,192.5 206.5,190.5C 209.4,189.263 212.567,188.597 216,188.5C 219.252,188.519 222.085,189.186 224.5,190.5 Z"/></g>
<g><path style="opacity:1" fill="#361753" d="M 229.5,186.5 C 228.167,189.833 225.833,192.167 222.5,193.5C 223.167,192.5 223.833,191.5 224.5,190.5C 226.167,189.167 227.833,187.833 229.5,186.5 Z"/></g>
<g><path style="opacity:1" fill="#4b1e77" d="M 222.5,193.5 C 221.564,194.974 220.23,195.974 218.5,196.5C 217.833,196.5 217.167,196.5 216.5,196.5C 218.181,194.992 220.181,193.992 222.5,193.5 Z"/></g>
<g><path style="opacity:1" fill="#5e3f7b" d="M 94.5,189.5 C 95.1667,189.5 95.5,189.833 95.5,190.5C 94.8333,193.167 94.1667,195.833 93.5,198.5C 89.8405,198.841 86.5072,198.175 83.5,196.5C 86.8067,197.051 90.1401,197.384 93.5,197.5C 93.1936,194.615 93.5269,191.948 94.5,189.5 Z"/></g>
<g><path style="opacity:1" fill="#7e32c8" d="M 201.5,189.5 C 202.674,190.514 203.34,191.847 203.5,193.5C 203.5,195.5 204.5,196.5 206.5,196.5C 208.265,197.461 210.265,197.795 212.5,197.5C 209.375,198.479 206.042,198.813 202.5,198.5C 200.833,198.5 199.167,198.5 197.5,198.5C 198.919,197.549 200.585,197.216 202.5,197.5C 202.167,194.833 201.833,192.167 201.5,189.5 Z"/></g>
<g><path style="opacity:1" fill="#5d4076" d="M 171.5,196.5 C 172.404,197.209 172.737,198.209 172.5,199.5C 147.994,199.831 123.661,199.498 99.5,198.5C 112.833,198.5 126.167,198.5 139.5,198.5C 150.552,199.143 161.219,198.476 171.5,196.5 Z"/></g>
<g><path style="opacity:1" fill="#491a76" d="M 189.5,196.5 C 191.82,198.226 194.487,198.893 197.5,198.5C 199.167,198.5 200.833,198.5 202.5,198.5C 202.5,198.833 202.5,199.167 202.5,199.5C 198.486,199.666 194.486,199.499 190.5,199C 189.748,198.329 189.414,197.496 189.5,196.5 Z"/></g>
<g><path style="opacity:1" fill="#2f114f" d="M 216.5,196.5 C 217.167,196.5 217.833,196.5 218.5,196.5C 216.208,198.267 213.542,199.267 210.5,199.5C 207.833,199.5 205.167,199.5 202.5,199.5C 202.5,199.167 202.5,198.833 202.5,198.5C 206.042,198.813 209.375,198.479 212.5,197.5C 213.833,197.167 215.167,196.833 216.5,196.5 Z"/></g>
<g><path style="opacity:1" fill="#050012" d="M 10.5,204.5 C 22.747,204.178 34.9136,204.512 47,205.5C 47.4999,218.162 47.6666,230.829 47.5,243.5C 34.8333,243.5 22.1667,243.5 9.5,243.5C 9.18634,230.421 9.51967,217.421 10.5,204.5 Z"/></g>
<g><path style="opacity:1" fill="#050012" d="M 51.5,204.5 C 63.5,204.5 75.5,204.5 87.5,204.5C 87.5,217.5 87.5,230.5 87.5,243.5C 74.8333,243.5 62.1667,243.5 49.5,243.5C 49.3335,231.162 49.5001,218.829 50,206.5C 50.7172,205.956 51.2172,205.289 51.5,204.5 Z"/></g>
<g><path style="opacity:1" fill="#070012" d="M 130.5,235.5 C 130.5,235.833 130.5,236.167 130.5,236.5C 127.772,236.171 125.438,236.837 123.5,238.5C 115.431,236.415 107.097,235.915 98.5,237C 103.012,238.725 107.679,239.559 112.5,239.5C 115.167,240.167 117.833,240.833 120.5,241.5C 111.827,241.334 103.16,241.5 94.5,242C 95.056,242.383 95.3893,242.883 95.5,243.5C 93.8333,243.5 92.1667,243.5 90.5,243.5C 90.3334,230.829 90.5001,218.162 91,205.5C 103.42,204.511 115.92,204.178 128.5,204.5C 127.858,215.221 128.525,225.554 130.5,235.5 Z"/></g>
<g><path style="opacity:1" fill="#080213" d="M 171.5,272.5 C 172.492,272.672 173.158,272.338 173.5,271.5C 173.5,269.167 173.5,266.833 173.5,264.5C 174.232,263.192 175.066,261.858 176,260.5C 176.383,261.056 176.883,261.389 177.5,261.5C 178.167,263.833 178.833,266.167 179.5,268.5C 179.5,269.833 179.5,271.167 179.5,272.5C 183.702,272.817 187.702,272.483 191.5,271.5C 192.378,267.664 193.044,263.664 193.5,259.5C 193.993,257.194 194.326,254.861 194.5,252.5C 196.217,249.155 196.884,245.489 196.5,241.5C 197.451,240.081 197.784,238.415 197.5,236.5C 193.629,236.185 189.962,236.518 186.5,237.5C 186.167,240.167 185.833,242.833 185.5,245.5C 184.778,245.918 184.278,246.584 184,247.5C 182.309,243.953 180.476,240.453 178.5,237C 174.973,236.192 171.64,236.359 168.5,237.5C 167.833,237.5 167.167,237.5 166.5,237.5C 159.352,236.508 152.019,236.175 144.5,236.5C 139.833,236.5 135.167,236.5 130.5,236.5C 130.5,236.167 130.5,235.833 130.5,235.5C 131.475,225.249 131.808,214.915 131.5,204.5C 143.838,204.333 156.171,204.5 168.5,205C 169.156,215.106 169.822,225.273 170.5,235.5C 171.178,225.273 171.844,215.106 172.5,205C 184.5,204.333 196.5,204.333 208.5,205C 209.489,217.754 209.822,230.587 209.5,243.5C 193.841,243.789 193.674,244.789 209,246.5C 209.5,258.829 209.667,271.162 209.5,283.5C 196.833,283.5 184.167,283.5 171.5,283.5C 171.5,279.833 171.5,276.167 171.5,272.5 Z"/></g>
<g><path style="opacity:1" fill="#050012" d="M 213.5,204.5 C 225.747,204.178 237.914,204.512 250,205.5C 250.5,218.162 250.667,230.829 250.5,243.5C 237.833,243.5 225.167,243.5 212.5,243.5C 212.186,230.421 212.52,217.421 213.5,204.5 Z"/></g>
<g><path style="opacity:1" fill="#050012" d="M 254.5,204.5 C 266.518,204.168 278.518,204.501 290.5,205.5C 291.481,218.117 291.814,230.783 291.5,243.5C 278.833,243.5 266.167,243.5 253.5,243.5C 253.186,230.421 253.52,217.421 254.5,204.5 Z"/></g>
<g><path style="opacity:1" fill="#050012" d="M 324.5,204.5 C 324.5,217.5 324.5,230.5 324.5,243.5C 314.167,243.5 303.833,243.5 293.5,243.5C 293.333,230.829 293.5,218.162 294,205.5C 304.084,204.514 314.251,204.181 324.5,204.5 Z"/></g>
<g><path style="opacity:1" fill="#6f6973" d="M 123.5,238.5 C 123.167,239.5 122.5,240.167 121.5,240.5C 121.5,239.833 121.167,239.5 120.5,239.5C 120.611,238.883 120.944,238.383 121.5,238C 116.833,237.333 112.167,237.333 107.5,238C 109.382,238.198 111.048,238.698 112.5,239.5C 107.679,239.559 103.012,238.725 98.5,237C 107.097,235.915 115.431,236.415 123.5,238.5 Z"/></g>
<g><path style="opacity:1" fill="#79747c" d="M 144.5,237.5 C 144.5,237.167 144.5,236.833 144.5,236.5C 152.019,236.175 159.352,236.508 166.5,237.5C 160.642,237.178 154.975,237.511 149.5,238.5C 148.041,238.433 146.708,238.766 145.5,239.5C 145.672,238.508 145.338,237.842 144.5,237.5 Z"/></g>
<g><path style="opacity:1" fill="#827c83" d="M 186.5,237.5 C 189.962,236.518 193.629,236.185 197.5,236.5C 197.784,238.415 197.451,240.081 196.5,241.5C 196.5,240.167 196.5,238.833 196.5,237.5C 193.167,237.5 189.833,237.5 186.5,237.5 Z"/></g>
<g><path style="opacity:1" fill="#c5c1c6" d="M 120.5,239.5 C 117.833,239.5 115.167,239.5 112.5,239.5C 111.048,238.698 109.382,238.198 107.5,238C 112.167,237.333 116.833,237.333 121.5,238C 120.944,238.383 120.611,238.883 120.5,239.5 Z"/></g>
<g><path style="opacity:1" fill="#b6b5bb" d="M 130.5,236.5 C 135.167,236.5 139.833,236.5 144.5,236.5C 144.5,236.833 144.5,237.167 144.5,237.5C 137.465,237.326 130.465,237.659 123.5,238.5C 125.438,236.837 127.772,236.171 130.5,236.5 Z"/></g>
<g><path style="opacity:1" fill="#f4f3f4" d="M 144.5,237.5 C 145.338,237.842 145.672,238.508 145.5,239.5C 145.5,239.833 145.5,240.167 145.5,240.5C 144.262,242.214 143.595,244.214 143.5,246.5C 139.176,246.073 134.842,245.739 130.5,245.5C 130.5,246.5 130.5,247.5 130.5,248.5C 132.515,249.924 134.848,250.59 137.5,250.5C 138.959,250.433 140.292,250.766 141.5,251.5C 134.018,252.492 126.352,252.825 118.5,252.5C 118.5,250.833 118.5,249.167 118.5,247.5C 118.971,245.421 119.637,243.421 120.5,241.5C 121.167,241.5 121.5,241.167 121.5,240.5C 122.5,240.167 123.167,239.5 123.5,238.5C 130.465,237.659 137.465,237.326 144.5,237.5 Z"/></g>
<g><path style="opacity:1" fill="#cbc9cc" d="M 149.5,238.5 C 154.975,237.511 160.642,237.178 166.5,237.5C 164.365,239.369 161.698,240.036 158.5,239.5C 155.57,238.701 152.57,238.368 149.5,238.5 Z"/></g>
<g><path style="opacity:1" fill="#b0adb2" d="M 185.5,245.5 C 185.762,246.978 185.429,248.311 184.5,249.5C 181.202,246.572 179.202,242.905 178.5,238.5C 175.167,238.5 171.833,238.5 168.5,238.5C 168.5,238.167 168.5,237.833 168.5,237.5C 171.64,236.359 174.973,236.192 178.5,237C 180.476,240.453 182.309,243.953 184,247.5C 184.278,246.584 184.778,245.918 185.5,245.5 Z"/></g>
<g><path style="opacity:1" fill="#f3f2f3" d="M 186.5,237.5 C 189.833,237.5 193.167,237.5 196.5,237.5C 196.5,238.833 196.5,240.167 196.5,241.5C 196.884,245.489 196.217,249.155 194.5,252.5C 185.167,252.5 175.833,252.5 166.5,252.5C 166.5,250.833 166.5,249.167 166.5,247.5C 166.5,246.833 166.5,246.167 166.5,245.5C 166.927,242.99 167.593,240.657 168.5,238.5C 171.833,238.5 175.167,238.5 178.5,238.5C 179.202,242.905 181.202,246.572 184.5,249.5C 185.429,248.311 185.762,246.978 185.5,245.5C 185.833,242.833 186.167,240.167 186.5,237.5 Z"/></g>
<g><path style="opacity:1" fill="#3f3846" d="M 112.5,239.5 C 115.167,239.5 117.833,239.5 120.5,239.5C 121.167,239.5 121.5,239.833 121.5,240.5C 121.5,241.167 121.167,241.5 120.5,241.5C 117.833,240.833 115.167,240.167 112.5,239.5 Z"/></g>
<g><path style="opacity:1" fill="#17131f" d="M 149.5,238.5 C 152.57,238.368 155.57,238.701 158.5,239.5C 161.028,240.166 163.694,240.832 166.5,241.5C 166.376,242.107 166.043,242.44 165.5,242.5C 162.5,242.5 159.5,242.5 156.5,242.5C 153.167,242.5 149.833,242.5 146.5,242.5C 145.662,242.158 145.328,241.492 145.5,240.5C 145.5,240.167 145.5,239.833 145.5,239.5C 146.708,238.766 148.041,238.433 149.5,238.5 Z"/></g>
<g><path style="opacity:1" fill="#504a57" d="M 166.5,237.5 C 167.167,237.5 167.833,237.5 168.5,237.5C 168.5,237.833 168.5,238.167 168.5,238.5C 167.593,240.657 166.927,242.99 166.5,245.5C 165.167,245.5 163.833,245.5 162.5,245.5C 159.287,245.81 156.287,245.477 153.5,244.5C 154.5,244.5 155.5,244.5 156.5,244.5C 160.012,245.055 163.012,244.388 165.5,242.5C 166.043,242.44 166.376,242.107 166.5,241.5C 163.694,240.832 161.028,240.166 158.5,239.5C 161.698,240.036 164.365,239.369 166.5,237.5 Z"/></g>
<g><path style="opacity:1" fill="#949096" d="M 146.5,242.5 C 149.833,242.5 153.167,242.5 156.5,242.5C 156.5,243.167 156.5,243.833 156.5,244.5C 155.5,244.5 154.5,244.5 153.5,244.5C 153.167,244.5 152.833,244.5 152.5,244.5C 150.5,243.833 148.5,243.167 146.5,242.5 Z"/></g>
<g><path style="opacity:1" fill="#c1bfc4" d="M 156.5,242.5 C 159.5,242.5 162.5,242.5 165.5,242.5C 163.012,244.388 160.012,245.055 156.5,244.5C 156.5,243.833 156.5,243.167 156.5,242.5 Z"/></g>
<g><path style="opacity:1" fill="#2f2836" d="M 120.5,241.5 C 119.637,243.421 118.971,245.421 118.5,247.5C 110.167,247.5 101.833,247.5 93.5,247.5C 100.655,246.671 107.989,246.171 115.5,246C 112.305,245.819 109.305,245.319 106.5,244.5C 110.555,244.824 114.555,244.491 118.5,243.5C 111.858,242.336 105.192,242.169 98.5,243C 101.036,243.186 103.369,243.686 105.5,244.5C 105.167,244.5 104.833,244.5 104.5,244.5C 101.391,244.736 98.3915,244.403 95.5,243.5C 95.3893,242.883 95.056,242.383 94.5,242C 103.16,241.5 111.827,241.334 120.5,241.5 Z"/></g>
<g><path style="opacity:1" fill="#adaaaf" d="M 106.5,244.5 C 106.167,244.5 105.833,244.5 105.5,244.5C 103.369,243.686 101.036,243.186 98.5,243C 105.192,242.169 111.858,242.336 118.5,243.5C 114.555,244.491 110.555,244.824 106.5,244.5 Z"/></g>
<g><path style="opacity:1" fill="#100918" d="M 104.5,244.5 C 104.833,244.5 105.167,244.5 105.5,244.5C 105.833,244.5 106.167,244.5 106.5,244.5C 109.305,245.319 112.305,245.819 115.5,246C 107.989,246.171 100.655,246.671 93.5,247.5C 100.311,248.82 107.311,249.82 114.5,250.5C 116.03,250.64 117.03,251.307 117.5,252.5C 109.493,252.334 101.493,252.5 93.5,253C 97.1454,253.719 100.812,254.219 104.5,254.5C 108.466,255.162 112.466,255.495 116.5,255.5C 117.167,255.167 117.833,254.833 118.5,254.5C 118.5,255.167 118.5,255.833 118.5,256.5C 111.011,257.329 103.344,257.829 95.5,258C 100.187,260.235 105.187,261.068 110.5,260.5C 112.5,260.5 114.5,260.5 116.5,260.5C 116.5,261.167 116.5,261.833 116.5,262.5C 116.5,262.833 116.5,263.167 116.5,263.5C 115.833,263.5 115.167,263.5 114.5,263.5C 107.989,262.182 101.322,262.182 94.5,263.5C 96.8511,265.229 99.5178,265.896 102.5,265.5C 105.167,265.5 107.833,265.5 110.5,265.5C 111.833,266.167 113.167,266.833 114.5,267.5C 114.5,268.167 114.5,268.833 114.5,269.5C 107.58,268.372 100.58,268.205 93.5,269C 100.436,270.409 107.436,271.242 114.5,271.5C 121.123,272.38 127.789,272.713 134.5,272.5C 132.735,273.461 130.735,273.795 128.5,273.5C 128.5,276.833 128.5,280.167 128.5,283.5C 115.833,283.5 103.167,283.5 90.5,283.5C 90.3335,271.162 90.5001,258.829 91,246.5C 95.6007,245.858 100.101,245.191 104.5,244.5 Z"/></g>
<g><path style="opacity:1" fill="#060011" d="M 152.5,244.5 C 152.833,244.5 153.167,244.5 153.5,244.5C 156.287,245.477 159.287,245.81 162.5,245.5C 156.654,246.817 150.654,246.817 144.5,245.5C 147.086,244.52 149.753,244.187 152.5,244.5 Z"/></g>
<g><path style="opacity:1" fill="#050012" d="M 9.5,245.5 C 21.8378,245.333 34.1712,245.5 46.5,246C 47.4888,258.42 47.8221,270.92 47.5,283.5C 34.8333,283.5 22.1667,283.5 9.5,283.5C 9.5,270.833 9.5,258.167 9.5,245.5 Z"/></g>
<g><path style="opacity:1" fill="#050012" d="M 50.5,245.5 C 62.8333,245.5 75.1667,245.5 87.5,245.5C 87.5,258.167 87.5,270.833 87.5,283.5C 74.8333,283.5 62.1667,283.5 49.5,283.5C 49.1869,270.754 49.5202,258.087 50.5,245.5 Z"/></g>
<g><path style="opacity:1" fill="#050012" d="M 212.5,245.5 C 224.838,245.333 237.171,245.5 249.5,246C 250.489,258.42 250.822,270.92 250.5,283.5C 237.833,283.5 225.167,283.5 212.5,283.5C 212.5,270.833 212.5,258.167 212.5,245.5 Z"/></g>
<g><path style="opacity:1" fill="#050012" d="M 253.5,245.5 C 265.838,245.333 278.171,245.5 290.5,246C 291.489,258.42 291.822,270.92 291.5,283.5C 278.833,283.5 266.167,283.5 253.5,283.5C 253.5,270.833 253.5,258.167 253.5,245.5 Z"/></g>
<g><path style="opacity:1" fill="#050012" d="M 324.5,245.5 C 324.5,258.167 324.5,270.833 324.5,283.5C 314.167,283.5 303.833,283.5 293.5,283.5C 293.333,271.162 293.5,258.829 294,246.5C 304.084,245.514 314.251,245.181 324.5,245.5 Z"/></g>
<g><path style="opacity:1" fill="#a6a3a9" d="M 93.5,247.5 C 101.833,247.5 110.167,247.5 118.5,247.5C 118.5,249.167 118.5,250.833 118.5,252.5C 118.167,252.5 117.833,252.5 117.5,252.5C 117.03,251.307 116.03,250.64 114.5,250.5C 107.311,249.82 100.311,248.82 93.5,247.5 Z"/></g>
<g><path style="opacity:1" fill="#aba8ae" d="M 166.5,247.5 C 166.5,249.167 166.5,250.833 166.5,252.5C 166.167,252.5 165.833,252.5 165.5,252.5C 164.082,250.692 162.082,250.025 159.5,250.5C 156.375,249.521 153.042,249.187 149.5,249.5C 147.708,248.691 145.708,248.191 143.5,248C 151.159,247.5 158.826,247.334 166.5,247.5 Z"/></g>
<g><path style="opacity:1" fill="#322c3a" d="M 145.5,240.5 C 145.328,241.492 145.662,242.158 146.5,242.5C 148.5,243.167 150.5,243.833 152.5,244.5C 149.753,244.187 147.086,244.52 144.5,245.5C 150.654,246.817 156.654,246.817 162.5,245.5C 163.833,245.5 165.167,245.5 166.5,245.5C 166.5,246.167 166.5,246.833 166.5,247.5C 158.826,247.334 151.159,247.5 143.5,248C 145.708,248.191 147.708,248.691 149.5,249.5C 146.302,248.964 143.635,249.631 141.5,251.5C 140.292,250.766 138.959,250.433 137.5,250.5C 135.562,248.837 133.228,248.171 130.5,248.5C 130.5,247.5 130.5,246.5 130.5,245.5C 134.842,245.739 139.176,246.073 143.5,246.5C 143.595,244.214 144.262,242.214 145.5,240.5 Z"/></g>
<g><path style="opacity:1" fill="#b6b4b9" d="M 130.5,248.5 C 133.228,248.171 135.562,248.837 137.5,250.5C 134.848,250.59 132.515,249.924 130.5,248.5 Z"/></g>
<g><path style="opacity:1" fill="#16111d" d="M 149.5,249.5 C 153.042,249.187 156.375,249.521 159.5,250.5C 154.025,251.489 148.358,251.822 142.5,251.5C 142.167,251.5 141.833,251.5 141.5,251.5C 143.635,249.631 146.302,248.964 149.5,249.5 Z"/></g>
<g><path style="opacity:1" fill="#24182f" d="M 159.5,250.5 C 162.082,250.025 164.082,250.692 165.5,252.5C 165.5,253.167 165.5,253.833 165.5,254.5C 164.833,254.167 164.167,253.833 163.5,253.5C 157.021,252.509 150.354,252.176 143.5,252.5C 142.833,252.5 142.5,252.167 142.5,251.5C 148.358,251.822 154.025,251.489 159.5,250.5 Z"/></g>
<g><path style="opacity:1" fill="#857397" d="M 117.5,252.5 C 117.833,252.5 118.167,252.5 118.5,252.5C 118.5,253.167 118.5,253.833 118.5,254.5C 117.833,254.833 117.167,255.167 116.5,255.5C 114.952,254.206 112.952,253.539 110.5,253.5C 108.304,253.505 106.304,253.838 104.5,254.5C 100.812,254.219 97.1454,253.719 93.5,253C 101.493,252.5 109.493,252.334 117.5,252.5 Z"/></g>
<g><path style="opacity:1" fill="#816e92" d="M 143.5,252.5 C 150.354,252.176 157.021,252.509 163.5,253.5C 158.968,253.182 154.634,253.515 150.5,254.5C 148.5,254.5 146.5,254.5 144.5,254.5C 144.5,255.5 144.5,256.5 144.5,257.5C 145.568,258.434 146.901,258.768 148.5,258.5C 148.5,258.833 148.5,259.167 148.5,259.5C 146.833,259.5 145.167,259.5 143.5,259.5C 143.5,257.167 143.5,254.833 143.5,252.5 Z"/></g>
<g><path style="opacity:1" fill="#b69fcb" d="M 104.5,254.5 C 106.304,253.838 108.304,253.505 110.5,253.5C 112.952,253.539 114.952,254.206 116.5,255.5C 112.466,255.495 108.466,255.162 104.5,254.5 Z"/></g>
<g><path style="opacity:1" fill="#ab97bf" d="M 150.5,254.5 C 154.634,253.515 158.968,253.182 163.5,253.5C 164.167,253.833 164.833,254.167 165.5,254.5C 165.5,255.5 165.5,256.5 165.5,257.5C 165.167,257.5 164.833,257.5 164.5,257.5C 162.365,255.631 159.698,254.964 156.5,255.5C 154.621,254.659 152.621,254.325 150.5,254.5 Z"/></g>
<g><path style="opacity:1" fill="#dfcaf4" d="M 141.5,251.5 C 141.833,251.5 142.167,251.5 142.5,251.5C 142.5,252.167 142.833,252.5 143.5,252.5C 143.5,254.833 143.5,257.167 143.5,259.5C 143.5,260.167 143.5,260.833 143.5,261.5C 143.167,261.5 142.833,261.5 142.5,261.5C 138.731,261.244 135.064,261.577 131.5,262.5C 131.672,261.508 131.338,260.842 130.5,260.5C 126.327,259.983 122.327,258.649 118.5,256.5C 118.5,255.833 118.5,255.167 118.5,254.5C 118.5,253.833 118.5,253.167 118.5,252.5C 126.352,252.825 134.018,252.492 141.5,251.5 Z"/></g>
<g><path style="opacity:1" fill="#e0caf7" d="M 165.5,252.5 C 165.833,252.5 166.167,252.5 166.5,252.5C 175.833,252.5 185.167,252.5 194.5,252.5C 194.326,254.861 193.993,257.194 193.5,259.5C 192.711,259.217 192.044,258.717 191.5,258C 182.785,257.005 174.118,256.838 165.5,257.5C 165.5,256.5 165.5,255.5 165.5,254.5C 165.5,253.833 165.5,253.167 165.5,252.5 Z"/></g>
<g><path style="opacity:1" fill="#140a1b" d="M 150.5,254.5 C 152.621,254.325 154.621,254.659 156.5,255.5C 158.631,256.314 160.964,256.814 163.5,257C 157.175,257.5 150.842,257.666 144.5,257.5C 144.5,256.5 144.5,255.5 144.5,254.5C 146.5,254.5 148.5,254.5 150.5,254.5 Z"/></g>
<g><path style="opacity:1" fill="#4d4259" d="M 118.5,256.5 C 122.327,258.649 126.327,259.983 130.5,260.5C 126.878,260.322 123.544,260.989 120.5,262.5C 119.167,262.5 117.833,262.5 116.5,262.5C 116.5,261.833 116.5,261.167 116.5,260.5C 117.873,260.657 119.207,260.49 120.5,260C 120.167,259.667 119.833,259.333 119.5,259C 113.5,258.333 107.5,258.333 101.5,259C 104.695,259.181 107.695,259.681 110.5,260.5C 105.187,261.068 100.187,260.235 95.5,258C 103.344,257.829 111.011,257.329 118.5,256.5 Z"/></g>
<g><path style="opacity:1" fill="#4c4058" d="M 156.5,255.5 C 159.698,254.964 162.365,255.631 164.5,257.5C 164.5,258.833 164.5,260.167 164.5,261.5C 164.167,261.5 163.833,261.5 163.5,261.5C 159.298,261.817 155.298,261.483 151.5,260.5C 155.226,260.823 158.893,260.489 162.5,259.5C 157.88,258.507 153.214,258.173 148.5,258.5C 146.901,258.768 145.568,258.434 144.5,257.5C 150.842,257.666 157.175,257.5 163.5,257C 160.964,256.814 158.631,256.314 156.5,255.5 Z"/></g>
<g><path style="opacity:1" fill="#ddccee" d="M 193.5,259.5 C 193.044,263.664 192.378,267.664 191.5,271.5C 191.5,269.5 191.5,267.5 191.5,265.5C 191.5,264.167 191.5,262.833 191.5,261.5C 186.833,261.5 182.167,261.5 177.5,261.5C 176.883,261.389 176.383,261.056 176,260.5C 175.066,261.858 174.232,263.192 173.5,264.5C 173.5,262.833 173.5,261.167 173.5,259.5C 170.145,259.091 167.145,259.758 164.5,261.5C 164.5,260.167 164.5,258.833 164.5,257.5C 164.833,257.5 165.167,257.5 165.5,257.5C 174.118,256.838 182.785,257.005 191.5,258C 192.044,258.717 192.711,259.217 193.5,259.5 Z"/></g>
<g><path style="opacity:1" fill="#a090af" d="M 116.5,260.5 C 114.5,260.5 112.5,260.5 110.5,260.5C 107.695,259.681 104.695,259.181 101.5,259C 107.5,258.333 113.5,258.333 119.5,259C 119.833,259.333 120.167,259.667 120.5,260C 119.207,260.49 117.873,260.657 116.5,260.5 Z"/></g>
<g><path style="opacity:1" fill="#b2a2c0" d="M 148.5,259.5 C 148.5,259.167 148.5,258.833 148.5,258.5C 153.214,258.173 157.88,258.507 162.5,259.5C 158.893,260.489 155.226,260.823 151.5,260.5C 150.791,259.596 149.791,259.263 148.5,259.5 Z"/></g>
<g><path style="opacity:1" fill="#1e1728" d="M 130.5,260.5 C 131.338,260.842 131.672,261.508 131.5,262.5C 127.833,262.5 124.167,262.5 120.5,262.5C 123.544,260.989 126.878,260.322 130.5,260.5 Z"/></g>
<g><path style="opacity:1" fill="#e4daee" d="M 173.5,264.5 C 173.5,266.833 173.5,269.167 173.5,271.5C 169.833,271.5 166.167,271.5 162.5,271.5C 162.5,269.833 162.5,268.167 162.5,266.5C 162.833,266.5 163.167,266.5 163.5,266.5C 163.5,267.833 163.5,269.167 163.5,270.5C 166.5,270.5 169.5,270.5 172.5,270.5C 172.5,268.833 172.5,267.167 172.5,265.5C 169.5,265.5 166.5,265.5 163.5,265.5C 163.5,265.167 163.5,264.833 163.5,264.5C 163.5,263.5 163.5,262.5 163.5,261.5C 163.833,261.5 164.167,261.5 164.5,261.5C 167.145,259.758 170.145,259.091 173.5,259.5C 173.5,261.167 173.5,262.833 173.5,264.5 Z"/></g>
<g><path style="opacity:1" fill="#292234" d="M 114.5,263.5 C 109.156,263.334 103.823,263.501 98.5,264C 100.058,264.21 101.391,264.71 102.5,265.5C 99.5178,265.896 96.8511,265.229 94.5,263.5C 101.322,262.182 107.989,262.182 114.5,263.5 Z"/></g>
<g><path style="opacity:1" fill="#20192a" d="M 143.5,259.5 C 145.167,259.5 146.833,259.5 148.5,259.5C 149.791,259.263 150.791,259.596 151.5,260.5C 155.298,261.483 159.298,261.817 163.5,261.5C 163.5,262.5 163.5,263.5 163.5,264.5C 156.5,264.206 149.833,263.206 143.5,261.5C 143.5,260.833 143.5,260.167 143.5,259.5 Z"/></g>
<g><path style="opacity:1" fill="#b6acbe" d="M 114.5,263.5 C 113.817,265.176 112.483,265.843 110.5,265.5C 107.833,265.5 105.167,265.5 102.5,265.5C 101.391,264.71 100.058,264.21 98.5,264C 103.823,263.501 109.156,263.334 114.5,263.5 Z"/></g>
<g><path style="opacity:1" fill="#ded4e7" d="M 142.5,261.5 C 142.5,262.5 142.5,263.5 142.5,264.5C 142.167,265.167 141.833,265.833 141.5,266.5C 141.167,266.5 140.833,266.5 140.5,266.5C 132.684,265.508 124.684,265.174 116.5,265.5C 116.771,267.38 116.104,268.713 114.5,269.5C 114.5,268.833 114.5,268.167 114.5,267.5C 115.345,266.329 116.011,264.995 116.5,263.5C 116.5,263.167 116.5,262.833 116.5,262.5C 117.833,262.5 119.167,262.5 120.5,262.5C 124.167,262.5 127.833,262.5 131.5,262.5C 135.064,261.577 138.731,261.244 142.5,261.5 Z"/></g>
<g><path style="opacity:1" fill="#a89eb0" d="M 142.5,261.5 C 142.833,261.5 143.167,261.5 143.5,261.5C 149.833,263.206 156.5,264.206 163.5,264.5C 163.5,264.833 163.5,265.167 163.5,265.5C 163.5,265.833 163.5,266.167 163.5,266.5C 163.167,266.5 162.833,266.5 162.5,266.5C 155.842,265.76 149.175,265.094 142.5,264.5C 142.5,263.5 142.5,262.5 142.5,261.5 Z"/></g>
<g><path style="opacity:1" fill="#ece1f5" d="M 177.5,261.5 C 182.167,261.5 186.833,261.5 191.5,261.5C 191.5,262.833 191.5,264.167 191.5,265.5C 187.833,265.5 184.167,265.5 180.5,265.5C 180.5,266.5 180.5,267.5 180.5,268.5C 180.167,268.5 179.833,268.5 179.5,268.5C 178.833,266.167 178.167,263.833 177.5,261.5 Z"/></g>
<g><path style="opacity:1" fill="#71687a" d="M 114.5,263.5 C 115.167,263.5 115.833,263.5 116.5,263.5C 116.011,264.995 115.345,266.329 114.5,267.5C 113.167,266.833 111.833,266.167 110.5,265.5C 112.483,265.843 113.817,265.176 114.5,263.5 Z"/></g>
<g><path style="opacity:1" fill="#241e2e" d="M 142.5,264.5 C 149.175,265.094 155.842,265.76 162.5,266.5C 162.5,268.167 162.5,269.833 162.5,271.5C 166.167,271.5 169.833,271.5 173.5,271.5C 173.158,272.338 172.492,272.672 171.5,272.5C 165.974,272.821 160.64,272.488 155.5,271.5C 157.167,271.5 158.833,271.5 160.5,271.5C 161.404,270.791 161.737,269.791 161.5,268.5C 154.416,269.126 147.75,268.459 141.5,266.5C 141.833,265.833 142.167,265.167 142.5,264.5 Z"/></g>
<g><path style="opacity:1" fill="#f7f3f9" d="M 163.5,265.5 C 166.5,265.5 169.5,265.5 172.5,265.5C 172.5,267.167 172.5,268.833 172.5,270.5C 169.5,270.5 166.5,270.5 163.5,270.5C 163.5,269.167 163.5,267.833 163.5,266.5C 163.5,266.167 163.5,265.833 163.5,265.5 Z"/></g>
<g><path style="opacity:1" fill="#eeebf1" d="M 191.5,265.5 C 191.5,267.5 191.5,269.5 191.5,271.5C 187.833,271.5 184.167,271.5 180.5,271.5C 180.5,270.5 180.5,269.5 180.5,268.5C 180.5,267.5 180.5,266.5 180.5,265.5C 184.167,265.5 187.833,265.5 191.5,265.5 Z"/></g>
<g><path style="opacity:1" fill="#9f9aa2" d="M 114.5,269.5 C 114.5,270.167 114.5,270.833 114.5,271.5C 107.436,271.242 100.436,270.409 93.5,269C 100.58,268.205 107.58,268.372 114.5,269.5 Z"/></g>
<g><path style="opacity:1" fill="#efedf1" d="M 140.5,266.5 C 140.443,267.609 140.11,268.609 139.5,269.5C 137.632,270.263 135.965,271.263 134.5,272.5C 127.789,272.713 121.123,272.38 114.5,271.5C 114.5,270.833 114.5,270.167 114.5,269.5C 116.104,268.713 116.771,267.38 116.5,265.5C 124.684,265.174 132.684,265.508 140.5,266.5 Z"/></g>
<g><path style="opacity:1" fill="#9a959e" d="M 140.5,266.5 C 140.833,266.5 141.167,266.5 141.5,266.5C 147.75,268.459 154.416,269.126 161.5,268.5C 161.737,269.791 161.404,270.791 160.5,271.5C 158.952,270.206 156.952,269.539 154.5,269.5C 152.304,269.505 150.304,269.838 148.5,270.5C 145.518,270.037 142.518,269.704 139.5,269.5C 140.11,268.609 140.443,267.609 140.5,266.5 Z"/></g>
<g><path style="opacity:1" fill="#c8c6cc" d="M 148.5,270.5 C 150.304,269.838 152.304,269.505 154.5,269.5C 156.952,269.539 158.952,270.206 160.5,271.5C 158.833,271.5 157.167,271.5 155.5,271.5C 153.236,270.781 150.903,270.448 148.5,270.5 Z"/></g>
<g><path style="opacity:1" fill="#37313e" d="M 179.5,268.5 C 179.833,268.5 180.167,268.5 180.5,268.5C 180.5,269.5 180.5,270.5 180.5,271.5C 184.167,271.5 187.833,271.5 191.5,271.5C 187.702,272.483 183.702,272.817 179.5,272.5C 179.5,271.167 179.5,269.833 179.5,268.5 Z"/></g>
</svg>
