<svg xmlns="http://www.w3.org/2000/svg" viewBox="0 0 400 400">
  <defs>
    <linearGradient id="gradient" x1="0%" y1="0%" x2="100%" y2="100%">
      <stop offset="0%" style="stop-color:#c084fc;stop-opacity:1" />
      <stop offset="100%" style="stop-color:#8b5cf6;stop-opacity:1" />
    </linearGradient>
  </defs>
  
  <!-- Background -->
  <rect width="400" height="400" fill="#0f0f23"/>
  
  <!-- Main logo container -->
  <g transform="translate(50, 50)">
    <!-- Outer bracket -->
    <path d="M 40 40 L 40 20 Q 40 0 60 0 L 240 0 Q 260 0 260 20 L 260 40" 
          fill="none" stroke="url(#gradient)" stroke-width="8" stroke-linecap="round"/>
    <path d="M 40 260 L 40 280 Q 40 300 60 300 L 240 300 Q 260 300 260 280 L 260 260" 
          fill="none" stroke="url(#gradient)" stroke-width="8" stroke-linecap="round"/>
    <path d="M 40 40 L 40 260" 
          fill="none" stroke="url(#gradient)" stroke-width="8" stroke-linecap="round"/>
    <path d="M 260 40 L 260 260" 
          fill="none" stroke="url(#gradient)" stroke-width="8" stroke-linecap="round"/>
    
    <!-- Letters S and N -->
    <text x="80" y="120" font-family="Arial, sans-serif" font-size="60" font-weight="bold" fill="url(#gradient)">S</text>
    <text x="180" y="120" font-family="Arial, sans-serif" font-size="60" font-weight="bold" fill="url(#gradient)">N</text>
    
    <!-- Diagonal line -->
    <line x1="60" y1="240" x2="240" y2="60" stroke="url(#gradient)" stroke-width="6" stroke-linecap="round"/>
  </g>
  
  <!-- Bottom text -->
  <g transform="translate(50, 320)">
    <text x="150" y="30" font-family="Arial, sans-serif" font-size="24" font-weight="bold" fill="#ffffff" text-anchor="middle">SN</text>
    <!-- Speed lines -->
    <g opacity="0.8">
      <line x1="80" y1="15" x2="120" y2="15" stroke="#ffffff" stroke-width="2"/>
      <line x1="85" y1="25" x2="115" y2="25" stroke="#ffffff" stroke-width="2"/>
      <line x1="90" y1="35" x2="110" y2="35" stroke="#ffffff" stroke-width="2"/>
      
      <line x1="180" y1="15" x2="220" y2="15" stroke="#ffffff" stroke-width="2"/>
      <line x1="185" y1="25" x2="215" y2="25" stroke="#ffffff" stroke-width="2"/>
      <line x1="190" y1="35" x2="210" y2="35" stroke="#ffffff" stroke-width="2"/>
    </g>
  </g>
</svg>